<?xml version="1.0" encoding="UTF-8"?>
<!-- Generated by Pixelmator Pro 2.4.5 -->
<svg width="270" height="100" viewBox="0 0 270 100" xmlns="http://www.w3.org/2000/svg" xmlns:xlink="http://www.w3.org/1999/xlink">
    <g id="Group">
        <g id="g1">
            <g id="dbd1cfff">
                <path id="Path" fill="#dbd1cf" stroke="none" d="M 18.611801 8.613922 C 20.028976 8.38784 21.449829 8.163589 22.876194 8 C 24.225365 8.176453 25.614971 7.931992 26.949432 8.229759 C 26.449467 8.56797 25.853924 8.692963 25.267567 8.775673 C 22.547176 9.295868 19.797379 9.89325 17.304909 11.14315 C 14.378651 12.637535 11.893536 14.927811 10.03154 17.624306 C 8.533484 19.699516 7.56848 22.109276 6.857136 24.553955 C 5.897646 28.638214 5.995066 32.961426 7.13101 36.997902 C 7.487602 38.058491 7.750454 39.150318 8.182407 40.183334 C 8.482019 40.878136 8.564732 41.683228 9.07205 42.276932 C 9.625319 43.75293 10.279682 45.188488 10.921181 46.62772 C 11.924784 48.581623 13.183884 50.419727 14.722376 51.993141 L 14.781195 52.121811 C 11.413792 53.02248 8.237549 54.810947 5.892132 57.411869 C 5.265339 57.950432 4.822355 58.647076 4.41246 59.356579 C 4.26725 59.310623 4.120201 59.275703 3.978666 59.220558 C 3.622074 58.044174 3.509953 56.810806 3.166227 55.630749 C 2.699348 53.564716 2.491642 51.452736 2.083584 49.375683 C 1.942051 48.142315 1.84647 46.903435 1.662657 45.677418 C 1.561562 44.710579 1.684715 43.730869 1.489878 42.775059 C 1.249084 36.510803 1.50642 30.196922 3.101892 24.112808 C 4.065058 20.741722 5.44915 17.363289 7.941614 14.826714 C 9.24299 13.341522 10.816406 12.141243 12.37512 10.944641 C 14.248144 9.714951 16.402401 8.957649 18.611801 8.613922 Z"/>
                <path id="path1" fill="#dbd1cf" stroke="none" d="M 48.304504 24.331543 C 48.31002 23.993324 48.118858 23.519096 48.550808 23.373894 C 49.287888 24.892159 50.017616 26.44352 50.330093 28.114357 C 50.537796 29.253975 50.717934 30.406464 50.692207 31.569984 C 50.793297 33.897026 51.120476 36.213032 51.140694 38.543743 C 51.410896 39.931515 51.232597 41.354202 51.284073 42.760349 C 51.22892 44.28598 51.432961 45.842854 51.100266 47.342747 C 51.241798 48.397816 51.019386 49.458393 50.949532 50.513474 C 50.49736 54.382675 49.857704 58.308861 48.247524 61.88213 C 47.839466 62.35268 47.749401 62.990505 47.466331 63.53091 C 46.385525 65.902061 44.631977 67.866989 42.940926 69.815384 C 41.670795 71.118591 40.374931 72.394241 39.091938 73.682747 C 38.397133 74.498871 37.406399 75.13485 36.298016 75.08522 C 36.724461 73.767303 37.509335 72.543121 37.569984 71.124107 C 36.281475 71.388794 35.068333 71.995369 33.76144 72.135063 C 33.22839 71.725174 33.325809 70.993607 33.708134 70.519379 C 35.027893 68.662895 37.224426 67.786118 38.968788 66.414886 C 39.669102 65.970078 40.233398 65.356148 40.882248 64.845154 C 42.029224 63.896694 42.931736 62.707439 43.904087 61.593552 C 44.775352 60.360184 45.898426 59.07719 45.834091 57.472527 C 45.806522 57.213352 45.727486 56.656406 45.348839 56.785076 C 43.810349 58.608471 42.049442 60.233353 40.363907 61.922565 C 39.034954 63.040134 37.746445 64.20549 36.384411 65.282623 C 36.013115 65.528923 35.470871 65.826706 35.057297 65.505035 C 34.480137 65.199905 34.489326 64.38195 34.790779 63.885666 C 35.239277 63.236816 35.884445 62.760742 36.527782 62.319599 C 38.568073 60.700233 40.619396 59.082703 42.451984 57.22438 C 43.133919 56.369663 43.964748 55.643608 44.582348 54.737427 C 45.420521 53.527958 46.280758 52.318481 46.872627 50.963802 C 47.740204 48.908806 48.368839 46.673672 48.181355 44.427509 C 48.11702 44.442219 47.990189 44.469788 47.925854 44.484493 C 46.413101 45.693966 45.418686 47.39053 44.313984 48.949245 C 43.356335 50.257973 42.040257 51.581406 40.312439 51.625523 C 39.692993 51.697201 39.34927 51.013435 39.404419 50.482224 C 39.487129 49.561329 39.966873 48.743378 40.316113 47.905205 C 41.042168 46.511917 41.878502 45.179295 42.68359 43.83197 C 44.508823 41.028862 45.760571 37.904091 46.821156 34.746223 C 47.815571 31.373306 48.462585 27.858856 48.304504 24.331543 Z"/>
                <path id="path2" fill="#dbd1cf" stroke="none" d="M 29.734158 54.401058 C 30.506161 54.189674 31.23772 53.849625 32.020756 53.673164 C 32.186184 54.327534 31.8829 54.961674 31.56123 55.511269 C 30.892166 56.626995 29.708427 57.268497 28.609238 57.884254 C 24.865025 59.661705 20.815685 60.709423 17.108234 62.575096 C 16.029266 63.104469 15.06794 63.834198 14.064333 64.490402 C 12.367765 65.760529 10.981838 67.451584 10.143665 69.403648 C 10.049919 69.640762 9.93228 69.890747 9.981911 70.155434 C 10.665684 70.171974 11.290638 69.848465 11.94684 69.705093 C 13.634218 69.30439 15.303215 68.828323 16.959347 68.309975 C 20.438873 67.409302 23.765839 66.019699 27.078098 64.644798 C 28.022884 64.40033 29.019138 64.115433 29.998844 64.315781 C 30.202877 65.317543 29.436382 66.243942 28.598209 66.690605 C 24.616879 69.074623 20.495853 71.236237 16.24065 73.094551 C 14.974197 73.712158 13.647087 74.349983 12.715168 75.443649 C 12.347548 75.892143 12.081022 76.833252 12.744577 77.138382 C 14.189325 77.79274 15.801342 77.90303 17.358215 78.096039 C 18.080589 78.200806 18.81583 78.24308 19.545559 78.191612 C 21.764145 78.029861 23.9809 77.787231 26.166405 77.362625 C 27.39793 77.134705 28.609238 76.80201 29.849957 76.621872 C 30.438152 76.541 31.136631 76.574089 31.548363 77.064857 C 31.88657 77.4674 31.596157 78.053757 31.235886 78.333145 C 26.984356 81.055374 22.126251 82.718857 17.17992 83.630554 C 15.588121 83.797829 14.000002 84.058838 12.400852 84.091927 C 11.847584 84.033104 11.27961 84.051483 10.744722 83.876862 C 9.93228 83.639755 9.323868 82.998253 8.842287 82.332855 C 6.1366 79.200729 4.234163 75.24881 4.094469 71.061615 C 4.076086 70.276749 4.188211 69.493713 4.342611 68.725388 C 4.80765 65.867142 6.529953 63.347095 8.759571 61.553112 C 11.389896 59.417233 14.573488 58.080936 17.823254 57.209675 C 21.760468 56.138062 25.811646 55.529648 29.734158 54.401058 Z"/>
                <path id="path3" fill="#dbd1cf" stroke="none" d="M 39.636013 76.621872 C 40.612045 75.658707 41.61565 74.717606 42.505295 73.669876 C 42.768139 74.417992 43.227665 75.088898 43.405964 75.868248 C 43.540146 76.338806 43.571388 76.862663 43.898575 77.25235 C 43.900414 77.522537 43.843433 77.790909 43.845272 78.064789 C 43.997833 81.020454 43.064079 84.00737 41.286633 86.37117 C 38.878716 89.589691 35.222733 91.821152 31.263462 92.50676 C 30.074207 92.793503 28.846355 92.68689 27.636883 92.719971 C 26.00465 92.68689 24.42572 92.240227 22.868847 91.793571 C 21.589527 91.690636 20.42049 91.122658 19.225727 90.699898 C 17.319614 89.718353 15.534815 88.411461 14.24263 86.681808 C 13.650761 86.064209 13.257406 85.294044 12.715168 84.63784 C 12.7409 84.562477 12.792368 84.411751 12.8181 84.336388 C 13.775753 84.288605 14.722376 84.579018 15.68738 84.509171 C 18.766201 84.610268 21.856049 84.369476 24.866859 83.705917 C 26.67004 83.380577 28.458515 82.913696 30.156921 82.218895 C 33.603363 80.917519 36.862316 79.059196 39.636013 76.621872 Z"/>
            </g>
            <g id="ccbfb9ff">
                <path id="path4" fill="#ccbfb9" stroke="none" d="M 26.949432 8.229759 C 28.149715 8.036758 29.408813 8.393356 30.625637 8.492607 C 31.783642 8.590027 32.906723 8.90802 34.04451 9.148811 C 34.10149 9.187416 34.213608 9.266449 34.270592 9.305054 C 34.314709 9.650612 34.276104 10.042137 34.513222 10.328873 C 35.239277 11.207489 36.116047 11.977654 36.691376 12.975739 C 36.158325 12.821342 35.720856 12.479454 35.276031 12.166977 C 32.392052 10.505333 29.009945 10.053154 25.734444 9.970444 C 23.545265 10.034782 21.328514 10.264542 19.264328 11.038383 C 14.275719 12.852592 10.163879 16.925819 8.261446 21.879509 C 7.680605 23.035675 7.480253 24.326019 7.123661 25.559395 C 6.798315 27.050087 6.586935 28.599609 6.759716 30.123398 C 6.427021 31.459702 6.287323 33.044144 7.138365 34.220535 C 7.09609 34.474182 7.031755 34.731522 7.110796 34.985176 C 7.463711 36.508965 7.691633 38.067677 8.243065 39.538158 C 8.511429 40.451694 8.860666 41.345016 9.07205 42.276932 C 8.564732 41.683228 8.482019 40.878136 8.182407 40.183334 C 7.750454 39.150318 7.487602 38.058491 7.13101 36.997902 C 5.995066 32.961426 5.897646 28.638214 6.857136 24.553955 C 7.56848 22.109276 8.533484 19.699516 10.03154 17.624306 C 11.893536 14.927811 14.378651 12.637535 17.304909 11.14315 C 19.797379 9.89325 22.547176 9.295868 25.267567 8.775673 C 25.853924 8.692963 26.449467 8.56797 26.949432 8.229759 Z"/>
                <path id="path5" fill="#ccbfb9" stroke="none" d="M 45.233036 69.710609 C 45.358028 69.556206 45.453613 69.212479 45.723812 69.326447 C 45.411331 70.45137 45.236713 71.609367 44.883797 72.725098 C 44.41692 74.202927 44.323174 75.76532 43.898575 77.25235 C 43.571388 76.862663 43.540146 76.338806 43.405964 75.868248 C 43.227665 75.088898 42.768139 74.417992 42.505295 73.669876 C 43.564045 72.460411 44.44817 71.111244 45.233036 69.710609 Z"/>
            </g>
            <g id="e5dedeff">
                <path id="path6" fill="#e5dede" stroke="none" d="M 34.270592 9.305054 C 34.777908 8.90802 35.364262 9.330788 35.858715 9.521942 C 38.137959 10.304977 40.643295 10.964859 42.292076 12.850746 C 44.595215 15.525192 46.44067 18.578278 47.867035 21.79863 C 48.09864 22.316978 48.598598 22.76548 48.550808 23.373894 C 48.118858 23.519096 48.31002 23.993324 48.304504 24.331543 C 48.462585 27.858856 47.815571 31.373306 46.821156 34.746223 C 45.760571 37.904091 44.508823 41.028862 42.68359 43.83197 C 41.878502 45.179295 41.042168 46.511917 40.316113 47.905205 C 39.966873 48.743378 39.487129 49.561329 39.404419 50.482224 C 39.34927 51.013435 39.692993 51.697201 40.312439 51.625523 C 42.040257 51.581406 43.356335 50.257973 44.313984 48.949245 C 45.418686 47.39053 46.413101 45.693966 47.925854 44.484493 C 47.990189 44.469788 48.11702 44.442219 48.181355 44.427509 C 48.368839 46.673672 47.740204 48.908806 46.872627 50.963802 C 46.280758 52.318481 45.420521 53.527958 44.582348 54.737427 C 43.964748 55.643608 43.133919 56.369663 42.451984 57.22438 C 40.619396 59.082703 38.568073 60.700233 36.527782 62.319599 C 35.884445 62.760742 35.239277 63.236816 34.790779 63.885666 C 34.489326 64.38195 34.480137 65.199905 35.057297 65.505035 C 35.470871 65.826706 36.013115 65.528923 36.384411 65.282623 C 37.746445 64.20549 39.034954 63.040134 40.363907 61.922565 C 42.049442 60.233353 43.810349 58.608471 45.348839 56.785076 C 45.727486 56.656406 45.806522 57.213352 45.834091 57.472527 C 45.898426 59.07719 44.775352 60.360184 43.904087 61.593552 C 42.931736 62.707439 42.029224 63.896694 40.882248 64.845154 C 40.233398 65.356148 39.669102 65.970078 38.968788 66.414886 C 37.224426 67.786118 35.027893 68.662895 33.708134 70.519379 C 33.325809 70.993607 33.22839 71.725174 33.76144 72.135063 C 35.068333 71.995369 36.281475 71.388794 37.569984 71.124107 C 37.509335 72.543121 36.724461 73.767303 36.298016 75.08522 C 37.406399 75.13485 38.397133 74.498871 39.091938 73.682747 C 40.374931 72.394241 41.670795 71.118591 42.940926 69.815384 C 44.631977 67.866989 46.385525 65.902061 47.466331 63.53091 C 47.749401 62.990505 47.839466 62.35268 48.247524 61.88213 C 48.238335 62.398636 48.014084 62.87471 47.870716 63.36364 C 47.571106 64.181595 47.35421 65.028961 47.034374 65.8414 C 46.602425 67.004929 45.995846 68.109619 45.723812 69.326447 C 45.453613 69.212479 45.358028 69.556206 45.233036 69.710609 C 44.44817 71.111244 43.564045 72.460411 42.505295 73.669876 C 41.61565 74.717606 40.612045 75.658707 39.636013 76.621872 C 36.862316 79.059196 33.603363 80.917519 30.156921 82.218895 C 28.458515 82.913696 26.67004 83.380577 24.866859 83.705917 C 21.856049 84.369476 18.766201 84.610268 15.68738 84.509171 C 14.722376 84.579018 13.775753 84.288605 12.8181 84.336388 C 12.792368 84.411751 12.7409 84.562477 12.715168 84.63784 C 12.527679 84.514687 12.476213 84.28492 12.400852 84.091927 C 14.000002 84.058838 15.588121 83.797829 17.17992 83.630554 C 22.126251 82.718857 26.984356 81.055374 31.235886 78.333145 C 31.596157 78.053757 31.88657 77.4674 31.548363 77.064857 C 31.136631 76.574089 30.438152 76.541 29.849957 76.621872 C 28.609238 76.80201 27.39793 77.134705 26.166405 77.362625 C 23.9809 77.787231 21.764145 78.029861 19.545559 78.191612 C 18.81583 78.24308 18.080589 78.200806 17.358215 78.096039 C 15.801342 77.90303 14.189325 77.79274 12.744577 77.138382 C 12.081022 76.833252 12.347548 75.892143 12.715168 75.443649 C 13.647087 74.349983 14.974197 73.712158 16.24065 73.094551 C 20.495853 71.236237 24.616879 69.074623 28.598209 66.690605 C 29.436382 66.243942 30.202877 65.317543 29.998844 64.315781 C 29.019138 64.115433 28.022884 64.40033 27.078098 64.644798 C 23.765839 66.019699 20.438873 67.409302 16.959347 68.309975 C 15.303215 68.828323 13.634218 69.30439 11.94684 69.705093 C 11.290638 69.848465 10.665684 70.171974 9.981911 70.155434 C 9.93228 69.890747 10.049919 69.640762 10.143665 69.403648 C 10.981838 67.451584 12.367765 65.760529 14.064333 64.490402 C 15.06794 63.834198 16.029266 63.104469 17.108234 62.575096 C 20.815685 60.709423 24.865025 59.661705 28.609238 57.884254 C 29.708427 57.268497 30.892166 56.626995 31.56123 55.511269 C 31.8829 54.961674 32.186184 54.327534 32.020756 53.673164 C 31.23772 53.849625 30.506161 54.189674 29.734158 54.401058 C 25.811646 55.529648 21.760468 56.138062 17.823254 57.209675 C 14.573488 58.080936 11.389896 59.417233 8.759571 61.553112 C 6.529953 63.347095 4.80765 65.867142 4.342611 68.725388 C 3.851839 67.545319 3.875734 66.220047 3.634943 64.973816 C 3.350037 63.35445 3.384962 61.648693 3.982344 60.099174 C 4.122038 59.817944 3.995211 59.510979 3.978666 59.220558 C 4.120201 59.275703 4.26725 59.310623 4.41246 59.356579 C 4.822355 58.647076 5.265339 57.950432 5.892132 57.411869 C 8.237549 54.810947 11.413792 53.02248 14.781195 52.121811 C 15.75355 51.869987 16.711205 51.529942 17.714806 51.425167 C 19.859867 51.158642 21.990234 50.794701 24.116913 50.421566 C 26.83363 50.188122 29.473148 49.294807 31.884735 48.048576 C 34.864304 46.335461 37.592045 44.159149 39.775707 41.495735 C 41.339935 39.663155 42.514481 37.481323 42.957466 35.097305 C 43.444561 33.170975 43.450073 31.165604 43.369198 29.193321 C 43.161499 25.270805 41.974079 21.42733 40.102894 17.984566 C 39.121349 16.218155 38.058926 14.470123 36.691376 12.975739 C 36.116047 11.977654 35.239277 11.207489 34.513222 10.328873 C 34.276104 10.042137 34.314709 9.650612 34.270592 9.305054 M 35.198837 47.739769 C 34.500355 48.226871 33.733868 48.607353 33.035385 49.096291 C 30.60358 50.627434 27.829884 51.518913 25.021259 52.05196 C 23.27874 52.187981 21.538055 52.357086 19.804729 52.5942 C 18.178009 52.93792 16.48144 53.07946 14.959492 53.792645 C 13.604809 54.26136 12.362253 55.029682 11.301666 55.991013 C 11.187704 56.161957 10.866037 56.272243 10.93956 56.518547 C 12.862217 56.397232 14.676422 55.566414 16.593565 55.378929 C 18.062206 54.99844 19.534527 54.64185 21.02523 54.351425 C 22.431377 54.09042 23.775032 53.572071 25.184853 53.345982 C 27.16449 52.662205 29.256248 52.007843 31.371906 52.254154 C 32.599754 52.283562 33.448959 53.559204 33.340515 54.713528 C 33.406689 55.840286 32.772541 56.849411 32.064869 57.669201 C 30.658722 59.044098 28.800404 59.817944 26.982517 60.470467 C 25.898037 61.071526 24.657318 61.277397 23.541592 61.806767 C 23.196026 61.966686 22.837601 62.102707 22.46814 62.200123 C 21.229256 62.501575 20.111691 63.15226 18.869133 63.440845 C 17.411518 64.030869 15.861998 64.790009 15.062426 66.218216 C 14.757299 66.648331 15.406149 67.161163 15.817884 66.953453 C 16.496147 66.679581 17.275501 66.69796 17.898617 66.299088 C 19.038242 65.966393 20.164997 65.541794 21.267857 65.080429 C 22.151985 64.613556 23.157425 64.459152 24.043392 63.988598 C 26.396164 63.187183 28.769154 62.301216 31.274487 62.144981 C 31.605343 62.113731 31.81673 62.446426 31.980316 62.685387 C 32.401245 64.086014 31.78915 65.470108 31.191772 66.7145 C 30.787392 67.556351 30.065018 68.168442 29.432709 68.831993 C 28.355579 69.888901 26.97884 70.543274 25.736282 71.364899 C 24.868698 71.585472 24.243744 72.25087 23.422115 72.568863 C 21.822964 73.429092 20.330425 74.565033 19.214695 76.006104 C 20.422329 75.859062 21.650185 75.833328 22.859653 75.660545 C 25.861275 75.609085 28.787533 74.449242 31.805702 74.820534 C 32.63652 75.120148 33.147514 76.092499 32.983921 76.954567 C 32.89753 78.338661 31.702763 79.222786 30.774521 80.095886 C 30.414257 80.480057 29.864658 80.904655 30.044796 81.503876 C 30.949146 81.040672 31.983997 80.893631 32.8479 80.344032 C 33.384628 80.00766 34.018772 79.825691 34.493008 79.393738 C 34.930477 79.027946 35.180454 78.45079 35.151043 77.884644 C 34.849598 77.167786 34.465439 76.458282 34.434185 75.664223 C 34.504032 75.031914 35.068333 74.394096 34.695198 73.765465 C 34.38456 73.544891 33.978333 73.574303 33.682404 73.800385 C 33.217365 74.144112 32.621815 74.210281 32.061195 74.16433 C 31.368233 73.958466 30.653206 73.331673 30.719383 72.548637 C 30.627476 71.545036 31.390285 70.782227 31.97113 70.065369 C 32.956348 69.179398 34.143768 68.563629 35.259491 67.861481 C 36.786957 67.254906 37.926579 66.016022 39.012897 64.843315 C 37.391689 65.157623 36.228176 66.464523 34.810993 67.216309 C 34.318382 67.449738 33.739384 67.451584 33.2192 67.319244 C 32.366322 66.813766 32.432491 65.679649 32.575859 64.830444 C 32.566673 63.751484 33.292725 62.876545 33.820259 61.997932 C 34.412128 61.428116 34.952534 60.797653 35.592186 60.275627 C 37.26302 59.062481 39.016575 57.965134 40.657997 56.709713 C 41.96489 55.513107 43.150471 53.998508 43.396774 52.19165 L 43.258915 52.142025 C 41.996136 52.641991 40.654324 53.03167 39.279419 52.941601 C 38.433899 52.862564 37.500141 52.897491 36.783279 52.369949 C 36.187737 51.719265 36.582928 50.825947 36.85313 50.125629 C 37.437645 48.947403 38.591972 48.017326 38.661819 46.622208 C 38.647118 46.241718 38.768429 45.659042 38.297874 45.511993 C 37.310814 46.317081 36.174866 46.919975 35.198837 47.739769 Z"/>
            </g>
            <g id="b1a6a4ff">
                <path id="path7" fill="#b1a6a4" stroke="none" d="M 25.734444 9.970444 C 29.009945 10.053154 32.392052 10.505333 35.276031 12.166977 C 35.720856 12.479454 36.158325 12.821342 36.691376 12.975739 C 38.058926 14.470123 39.121349 16.218155 40.102894 17.984566 C 41.974079 21.42733 43.161499 25.270805 43.369198 29.193321 C 42.738731 29.213539 42.10091 29.26133 41.509041 29.498444 C 41.531097 27.678719 41.448387 25.811211 40.924526 24.059502 C 40.200314 20.681061 38.534988 17.462555 36.018627 15.071182 C 34.323898 13.483055 32.042812 12.775391 29.829742 12.264397 C 27.458588 11.654144 24.986343 11.687233 22.560043 11.812225 C 21.427773 11.990517 20.251389 12.11367 19.216534 12.639366 C 19.041916 12.670616 18.869133 12.705536 18.700027 12.749657 C 16.371155 13.484901 14.306965 14.986626 12.76296 16.868843 C 11.884344 18.017662 11.483639 19.43116 11.016762 20.778481 C 10.219025 23.585274 9.915737 26.511528 9.867949 29.417564 C 8.822069 29.160233 7.349745 28.980095 6.759716 30.123398 C 6.586935 28.599609 6.798315 27.050087 7.123661 25.559395 C 7.480253 24.326019 7.680605 23.035675 8.261446 21.879509 C 10.163879 16.925819 14.275719 12.852592 19.264328 11.038383 C 21.328514 10.264542 23.545265 10.034782 25.734444 9.970444 Z"/>
            </g>
            <g id="f1d2baff">
                <path id="path8" fill="#f1d2ba" stroke="none" d="M 22.560043 11.812225 C 24.986343 11.687233 27.458588 11.654144 29.829742 12.264397 C 32.042812 12.775391 34.323898 13.483055 36.018627 15.071182 C 38.534988 17.462555 40.200314 20.681061 40.924526 24.059502 C 40.455811 24.960175 40.573448 26.000534 40.376766 26.967377 C 40.075321 28.426834 39.691158 29.875252 39.538593 31.364113 C 39.351109 33.09745 38.796005 34.759094 38.373238 36.444633 C 37.785049 37.727627 37.138031 39.02533 36.141781 40.049149 C 34.847759 41.254948 33.19714 42.107826 31.436241 42.339432 C 29.68269 42.677639 27.94936 43.19598 26.157211 43.28421 C 23.407406 43.359573 20.681503 42.920265 17.946407 42.673962 C 16.668928 42.44236 15.323435 42.332077 14.169106 41.690582 C 13.882364 41.539852 13.555182 41.530663 13.242702 41.484707 C 11.559004 39.679695 10.818247 37.242371 10.377102 34.869385 C 9.311001 35.341766 7.86993 35.214943 7.138365 34.220535 C 6.287323 33.044144 6.427021 31.459702 6.759716 30.123398 C 7.349745 28.980095 8.822069 29.160233 9.867949 29.417564 C 9.915737 26.511528 10.219025 23.585274 11.016762 20.778481 C 11.483639 19.43116 11.884344 18.017662 12.76296 16.868843 C 14.306965 14.986626 16.371155 13.484901 18.700027 12.749657 C 18.315865 13.163223 17.705616 13.262489 17.349022 13.70179 C 18.51622 13.218376 19.817596 12.646721 21.089561 13.071327 C 22.356014 13.681572 23.572838 14.624519 25.050671 14.580406 C 25.565342 14.560188 26.261978 14.615326 26.559757 14.095146 C 25.760181 14.040009 24.949577 14.337776 24.159195 14.074928 C 22.736504 13.804733 21.620773 12.540115 20.108017 12.692673 C 19.808403 12.701866 19.51247 12.683487 19.216534 12.639366 C 20.251389 12.11367 21.427773 11.990517 22.560043 11.812225 M 22.648273 12.253372 C 23.168453 12.918762 24.102211 12.983093 24.872375 13.135651 C 25.978916 13.209183 27.105671 13.256966 28.199341 13.040077 C 28.49712 12.983093 28.97686 12.909576 28.884953 12.490479 C 27.263748 12.74231 25.583721 13.038231 23.958839 12.609962 C 23.51218 12.525406 23.1078 12.253372 22.648273 12.253372 M 28.997078 13.608047 C 28.577988 13.927879 28.203018 14.306526 27.745331 14.573051 C 26.879585 15.076691 25.872303 15.267853 24.885246 15.330353 C 23.161102 15.38549 21.52887 14.736641 19.894794 14.304695 C 20.345131 14.771568 21.006847 14.924133 21.593204 15.153893 C 22.984646 15.679588 24.515785 15.990234 25.995457 15.681427 C 27.162655 15.492104 28.276543 14.911263 29.098175 14.060219 C 29.283825 13.938911 29.278309 13.560257 28.997078 13.608047 M 30.864586 13.442619 C 31.452782 14.435196 32.528076 14.99398 33.447124 15.640984 C 34.476463 16.256752 35.581158 16.857819 36.79982 16.953392 C 36.788795 16.896416 36.764896 16.782455 36.753872 16.725471 C 35.524178 16.13176 34.191555 15.734741 33.079506 14.916779 C 32.283604 14.510559 31.688061 13.778992 30.864586 13.442619 M 29.969433 14.409462 C 30.252502 14.830383 30.655048 15.144707 30.996933 15.512329 C 32.042812 16.591293 32.79092 17.933105 33.239418 19.363144 C 33.298241 19.36499 33.415874 19.368668 33.474693 19.370499 C 33.25412 18.10405 32.631004 16.916634 31.849815 15.905678 C 31.327793 15.310135 30.763496 14.609818 29.969433 14.409462 M 19.532688 14.810165 C 20.207272 15.694298 21.33403 16.004936 22.264107 16.537987 C 23.78054 17.24382 25.545124 17.920242 27.210442 17.321022 C 28.210369 16.990158 29.258087 16.159332 29.243389 15.017876 C 28.886795 15.003166 28.827972 15.413063 28.646004 15.633644 C 28.076191 16.622536 26.912674 17.12986 25.800617 17.107796 C 24.133457 17.096764 22.628052 16.295357 21.153896 15.607903 C 20.607983 15.356087 20.131912 14.935158 19.532688 14.810165 M 16.599077 15.321167 L 16.670765 15.492104 C 17.880234 16.591293 19.394829 17.400055 21.017876 17.66658 C 21.231094 17.668411 21.493946 17.793404 21.664886 17.604088 L 21.584011 17.414757 C 20.924133 17.150078 20.194408 17.12986 19.536366 16.857819 C 18.477619 16.506737 17.60268 15.784363 16.599077 15.321167 M 15.33814 16.694221 C 16.532907 17.804436 18.005226 18.909134 19.725689 18.808037 C 19.591507 18.716141 19.446297 18.653633 19.290062 18.622398 C 18.025448 18.473503 16.951992 17.708855 15.963093 16.962585 C 15.782961 16.815536 15.562389 16.740173 15.33814 16.694221 M 27.752686 18.219841 C 26.315289 18.480858 24.855835 18.23455 23.431305 18.017662 C 23.442333 18.070961 23.462555 18.179405 23.471741 18.232719 C 25.521225 18.830101 28.10376 19.105812 29.785622 17.514015 C 29.963917 17.287933 30.500648 16.991997 30.182652 16.681358 C 29.392273 17.223602 28.739742 18.025009 27.752686 18.219841 M 33.901138 16.863327 C 33.794525 17.100441 34.072079 17.291603 34.169498 17.484604 C 35.132664 18.683052 36.684021 19.245506 38.165531 19.425644 C 38.147156 19.341087 38.112228 19.173828 38.095688 19.089272 C 36.544331 18.70327 35.037083 18.013985 33.901138 16.863327 M 14.183813 16.995674 C 14.272041 17.640846 14.681936 18.208824 14.759136 18.868698 C 15.115728 20.223381 14.71686 21.598282 14.518345 22.938255 C 14.577166 22.971344 14.692968 23.035675 14.751785 23.066925 C 15.38777 21.287643 15.49254 19.234482 14.676422 17.491959 C 14.566137 17.287933 14.448498 17.014053 14.183813 16.995674 M 13.185722 17.951485 C 13.625027 19.499168 13.716934 21.157135 13.375044 22.736061 C 13.172857 23.798485 12.671055 24.774521 12.45232 25.831436 C 12.733549 25.811211 12.779503 25.496895 12.880598 25.289192 C 13.79781 23.013618 14.23344 20.372261 13.386076 18.010307 C 13.336447 17.995598 13.235352 17.966194 13.185722 17.951485 M 11.88986 19.804291 C 11.367838 20.752754 11.375191 21.866646 11.320049 22.918037 C 11.340269 24.201035 11.430336 25.491386 11.706051 26.746803 C 11.755678 26.719238 11.854937 26.665924 11.902725 26.64019 C 11.985441 25.827759 11.746487 25.015312 11.720753 24.201035 C 11.682156 22.993401 11.619661 21.763702 11.921108 20.579979 C 11.948679 20.324471 12.14168 19.99913 11.88986 19.804291 M 35.369778 19.817154 C 35.423088 20.182945 35.801731 20.342857 36.025982 20.596519 C 37.171116 21.592766 38.014809 23.022812 38.049736 24.564972 C 38.088333 24.873772 37.876953 25.335136 38.26479 25.480354 C 38.669174 24.333374 38.310745 23.057739 37.715199 22.043098 C 37.156414 21.122208 36.400955 20.208679 35.369778 19.817154 M 39.444855 22.554092 C 39.413605 23.120232 39.650723 23.653275 39.711376 24.212059 C 39.799606 25.250587 39.753654 26.298309 39.573517 27.325806 C 39.540432 27.627258 39.443012 27.948921 39.562489 28.244858 L 39.757328 28.20993 C 40.108406 27.221031 40.187443 26.158607 40.215019 25.118248 C 40.185608 24.230446 40.051426 23.243378 39.444855 22.554092 M 10.856846 28.617996 C 10.987352 28.932304 11.029629 29.331177 11.364164 29.505798 C 11.560839 29.169426 11.310856 28.801804 11.226307 28.472778 C 10.691418 27.103394 10.531502 25.631073 10.489225 24.173462 C 10.0683 25.632919 10.404675 27.195305 10.856846 28.617996 M 15.404312 27.759598 C 15.139626 27.965469 15.347332 28.344116 15.634075 28.36985 C 16.115658 27.983849 16.663412 27.377274 17.347183 27.702614 C 17.641281 27.897453 18.093456 27.789001 18.045666 27.371765 C 17.301231 26.605278 15.96677 26.915909 15.404312 27.759598 M 33.085018 27.505943 C 33.204494 28.024292 33.757763 27.675041 34.075752 27.618065 C 34.647408 27.51329 35.029728 28.018768 35.419407 28.340439 C 35.579327 28.342278 35.719017 28.287132 35.836658 28.171333 C 35.792542 27.43058 34.923122 27.015175 34.259563 26.912231 C 33.847828 27.004143 33.176926 26.969215 33.085018 27.505943 M 16.861927 28.899223 C 16.284761 29.016861 15.911627 29.542557 15.828915 30.101341 C 15.657972 30.996498 16.301308 31.939445 17.152348 32.198616 C 17.725834 32.215157 18.4188 32.231697 18.804798 31.73909 C 19.461002 31.047966 19.571289 29.798058 18.826859 29.138176 C 18.249691 28.719093 17.527321 28.524254 16.861927 28.899223 M 33.044579 28.897385 C 31.498737 29.366096 31.871872 31.897171 33.340515 32.182076 C 33.978333 32.272141 34.680492 32.154503 35.134502 31.663727 C 35.575645 30.970764 35.658363 30.016792 35.222733 29.301773 C 34.649246 28.752174 33.772469 28.478294 33.044579 28.897385 M 27.326244 31.617775 C 27.083614 31.84938 27.500866 32.218834 27.714085 31.981728 C 27.947521 31.750114 27.548653 31.375145 27.326244 31.617775 M 22.703415 32.340149 C 22.602322 32.636086 22.705254 32.739014 23.014053 32.648949 C 23.104122 32.349342 22.999348 32.246407 22.703415 32.340149 M 25.662762 32.288681 C 25.557987 32.584618 25.655411 32.694901 25.955017 32.619545 C 26.059792 32.310745 25.962372 32.200447 25.662762 32.288681 M 14.652529 32.735336 C 13.900743 33.08091 13.30336 33.819824 13.437544 34.691086 C 13.718771 36.679913 16.38402 37.711086 18.001549 36.606384 C 18.55666 35.911583 18.424313 34.907974 18.029125 34.170898 C 17.481369 32.948563 15.904278 32.248245 14.652529 32.735336 M 35.049953 32.722473 C 33.456314 33.161789 32.4086 35.474113 33.660343 36.74976 C 35.125313 37.461105 37.176636 36.856365 37.832836 35.308685 C 38.24641 34.571602 38.018486 33.560654 37.321846 33.079063 C 36.735485 32.461464 35.803574 32.492714 35.049953 32.722473 M 28.978699 33.04966 C 28.736069 33.334564 29.24522 33.591904 29.423519 33.330887 C 29.634899 33.060692 29.153313 32.786812 28.978699 33.04966 M 31.007961 33.408089 C 30.864586 33.628662 31.256107 33.847397 31.388447 33.630493 C 31.57777 33.397064 31.149498 33.193031 31.007961 33.408089 M 28.050453 33.621307 C 27.782093 33.792252 28.050453 34.297729 28.328011 34.075317 C 28.576153 33.898857 28.328011 33.400742 28.050453 33.621307 M 23.87796 36.225903 C 24.208824 36.556759 24.738197 36.9207 25.203236 36.64315 C 25.197723 36.542053 25.18853 36.336185 25.183014 36.235088 C 24.802528 36.088043 24.320946 36.005329 24.16103 35.569695 C 23.903694 35.178185 24.126106 34.707626 24.399982 34.396988 C 24.706951 34.110237 25.319038 34.538521 25.499168 34.097374 C 25.460567 33.619469 24.837452 33.676453 24.499241 33.720566 C 23.438656 33.952171 23.11515 35.509041 23.87796 36.225903 M 30.430798 34.152519 C 30.182652 34.288536 30.182652 34.409851 30.427128 34.516464 C 30.677101 34.382286 30.678944 34.260971 30.430798 34.152519 M 26.221542 36.089878 C 26.714157 36.349049 27.315216 35.974083 27.403446 35.44838 C 27.324402 35.389565 27.166325 35.270088 27.089127 35.211266 C 26.760105 35.411621 26.103905 35.619324 26.221542 36.089878 M 30.805771 35.24987 C 30.710186 35.551315 30.813122 35.652412 31.110897 35.558662 C 31.202801 35.25354 31.099865 35.150612 30.805771 35.24987 M 27.69754 38.604404 C 27.30051 39.177891 26.752754 39.766087 25.995457 39.749538 C 25.164635 39.869019 24.438583 39.319424 23.951488 38.709179 C 23.719883 38.462864 23.38903 38.777184 23.431305 39.041874 C 24.379765 40.826668 27.28764 40.865269 28.19199 39.021648 C 28.226913 38.731236 27.991638 38.468384 27.69754 38.604404 M 24.945904 41.153851 C 24.745544 41.440598 25.080086 41.697926 25.348446 41.554558 C 25.697685 41.350533 26.140667 41.479191 26.477036 41.256786 C 26.368591 40.525219 25.300652 40.727413 24.945904 41.153851 Z"/>
                <path id="path9" fill="#f1d2ba" stroke="none" d="M 41.509041 29.498444 C 42.10091 29.26133 42.738731 29.213539 43.369198 29.193321 C 43.450073 31.165604 43.444561 33.170975 42.957466 35.097305 C 42.350895 35.124878 41.667122 35.246193 41.178181 34.786659 C 40.911655 34.485214 40.529331 34.20031 40.529331 33.759163 C 40.501762 32.661819 40.452133 31.536903 40.766453 30.472633 C 40.884087 30.06826 41.237007 29.798058 41.509041 29.498444 Z"/>
            </g>
            <g id="d9b296ff">
                <path id="path10" fill="#d9b296" stroke="none" d="M 22.648273 12.253372 C 23.1078 12.253372 23.51218 12.525406 23.958839 12.609962 C 25.583721 13.038231 27.263748 12.74231 28.884953 12.490479 C 28.97686 12.909576 28.49712 12.983093 28.199341 13.040077 C 27.105671 13.256966 25.978916 13.209183 24.872375 13.135651 C 24.102211 12.983093 23.168453 12.918762 22.648273 12.253372 Z"/>
                <path id="path11" fill="#d9b296" stroke="none" d="M 29.969433 14.409462 C 30.763496 14.609818 31.327793 15.310135 31.849815 15.905678 C 32.631004 16.916634 33.25412 18.10405 33.474693 19.370499 C 33.415874 19.368668 33.298241 19.36499 33.239418 19.363144 C 32.79092 17.933105 32.042812 16.591293 30.996933 15.512329 C 30.655048 15.144707 30.252502 14.830383 29.969433 14.409462 Z"/>
                <path id="path12" fill="#d9b296" stroke="none" d="M 30.430798 34.152519 C 30.678944 34.260971 30.677101 34.382286 30.427128 34.516464 C 30.182652 34.409851 30.182652 34.288536 30.430798 34.152519 Z"/>
            </g>
            <g id="cda688ff">
                <path id="path13" fill="#cda688" stroke="none" d="M 18.700027 12.749657 C 18.869133 12.705536 19.041916 12.670616 19.216534 12.639366 C 19.51247 12.683487 19.808403 12.701866 20.108017 12.692673 C 21.620773 12.540115 22.736504 13.804733 24.159195 14.074928 C 24.949577 14.337776 25.760181 14.040009 26.559757 14.095146 C 26.261978 14.615326 25.565342 14.560188 25.050671 14.580406 C 23.572838 14.624519 22.356014 13.681572 21.089561 13.071327 C 19.817596 12.646721 18.51622 13.218376 17.349022 13.70179 C 17.705616 13.262489 18.315865 13.163223 18.700027 12.749657 Z"/>
                <path id="path14" fill="#cda688" stroke="none" d="M 13.185722 17.951485 C 13.235352 17.966194 13.336447 17.995598 13.386076 18.010307 C 14.23344 20.372261 13.79781 23.013618 12.880598 25.289192 C 12.779503 25.496895 12.733549 25.811211 12.45232 25.831436 C 12.671055 24.774521 13.172857 23.798485 13.375044 22.736061 C 13.716934 21.157135 13.625027 19.499168 13.185722 17.951485 Z"/>
            </g>
            <g id="cca587ff">
                <path id="path15" fill="#cca587" stroke="none" d="M 28.997078 13.608047 C 29.278309 13.560257 29.283825 13.938911 29.098175 14.060219 C 28.276543 14.911263 27.162655 15.492104 25.995457 15.681427 C 24.515785 15.990234 22.984646 15.679588 21.593204 15.153893 C 21.006847 14.924133 20.345131 14.771568 19.894794 14.304695 C 21.52887 14.736641 23.161102 15.38549 24.885246 15.330353 C 25.872303 15.267853 26.879585 15.076691 27.745331 14.573051 C 28.203018 14.306526 28.577988 13.927879 28.997078 13.608047 Z"/>
                <path id="path16" fill="#cca587" stroke="none" d="M 19.532688 14.810165 C 20.131912 14.935158 20.607983 15.356087 21.153896 15.607903 C 22.628052 16.295357 24.133457 17.096764 25.800617 17.107796 C 26.912674 17.12986 28.076191 16.622536 28.646004 15.633644 C 28.827972 15.413063 28.886795 15.003166 29.243389 15.017876 C 29.258087 16.159332 28.210369 16.990158 27.210442 17.321022 C 25.545124 17.920242 23.78054 17.24382 22.264107 16.537987 C 21.33403 16.004936 20.207272 15.694298 19.532688 14.810165 Z"/>
                <path id="path17" fill="#cca587" stroke="none" d="M 15.33814 16.694221 C 15.562389 16.740173 15.782961 16.815536 15.963093 16.962585 C 16.951992 17.708855 18.025448 18.473503 19.290062 18.622398 C 19.446297 18.653633 19.591507 18.716141 19.725689 18.808037 C 18.005226 18.909134 16.532907 17.804436 15.33814 16.694221 Z"/>
                <path id="path18" fill="#cca587" stroke="none" d="M 15.404312 27.759598 C 15.96677 26.915909 17.301231 26.605278 18.045666 27.371765 C 18.093456 27.789001 17.641281 27.897453 17.347183 27.702614 C 16.663412 27.377274 16.115658 27.983849 15.634075 28.36985 C 15.347332 28.344116 15.139626 27.965469 15.404312 27.759598 Z"/>
                <path id="path19" fill="#cca587" stroke="none" d="M 33.085018 27.505943 C 33.176926 26.969215 33.847828 27.004143 34.259563 26.912231 C 34.923122 27.015175 35.792542 27.43058 35.836658 28.171333 C 35.719017 28.287132 35.579327 28.342278 35.419407 28.340439 C 35.029728 28.018768 34.647408 27.51329 34.075752 27.618065 C 33.757763 27.675041 33.204494 28.024292 33.085018 27.505943 Z"/>
            </g>
            <g id="d6af93ff">
                <path id="path20" fill="#d6af93" stroke="none" d="M 30.864586 13.442619 C 31.688061 13.778992 32.283604 14.510559 33.079506 14.916779 C 34.191555 15.734741 35.524178 16.13176 36.753872 16.725471 C 36.764896 16.782455 36.788795 16.896416 36.79982 16.953392 C 35.581158 16.857819 34.476463 16.256752 33.447124 15.640984 C 32.528076 14.99398 31.452782 14.435196 30.864586 13.442619 Z"/>
                <path id="path21" fill="#d6af93" stroke="none" d="M 27.752686 18.219841 C 28.739742 18.025009 29.392273 17.223602 30.182652 16.681358 C 30.500648 16.991997 29.963917 17.287933 29.785622 17.514015 C 28.10376 19.105812 25.521225 18.830101 23.471741 18.232719 C 23.462555 18.179405 23.442333 18.070961 23.431305 18.017662 C 24.855835 18.23455 26.315289 18.480858 27.752686 18.219841 Z"/>
            </g>
            <g id="d6b093ff">
                <path id="path22" fill="#d6b093" stroke="none" d="M 16.599077 15.321167 C 17.60268 15.784363 18.477619 16.506737 19.536366 16.857819 C 20.194408 17.12986 20.924133 17.150078 21.584011 17.414757 L 21.664886 17.604088 C 21.493946 17.793404 21.231094 17.668411 21.017876 17.66658 C 19.394829 17.400055 17.880234 16.591293 16.670765 15.492104 L 16.599077 15.321167 Z"/>
                <path id="path23" fill="#d6b093" stroke="none" d="M 35.369778 19.817154 C 36.400955 20.208679 37.156414 21.122208 37.715199 22.043098 C 38.310745 23.057739 38.669174 24.333374 38.26479 25.480354 C 37.876953 25.335136 38.088333 24.873772 38.049736 24.564972 C 38.014809 23.022812 37.171116 21.592766 36.025982 20.596519 C 35.801731 20.342857 35.423088 20.182945 35.369778 19.817154 Z"/>
            </g>
            <g id="d5ad91ff">
                <path id="path24" fill="#d5ad91" stroke="none" d="M 33.901138 16.863327 C 35.037083 18.013985 36.544331 18.70327 38.095688 19.089272 C 38.112228 19.173828 38.147156 19.341087 38.165531 19.425644 C 36.684021 19.245506 35.132664 18.683052 34.169498 17.484604 C 34.072079 17.291603 33.794525 17.100441 33.901138 16.863327 Z"/>
            </g>
            <g id="d7b094ff">
                <path id="path25" fill="#d7b094" stroke="none" d="M 14.183813 16.995674 C 14.448498 17.014053 14.566137 17.287933 14.676422 17.491959 C 15.49254 19.234482 15.38777 21.287643 14.751785 23.066925 C 14.692968 23.035675 14.577166 22.971344 14.518345 22.938255 C 14.71686 21.598282 15.115728 20.223381 14.759136 18.868698 C 14.681936 18.208824 14.272041 17.640846 14.183813 16.995674 Z"/>
            </g>
            <g id="dcb599ff">
                <path id="path26" fill="#dcb599" stroke="none" d="M 11.88986 19.804291 C 12.14168 19.99913 11.948679 20.324471 11.921108 20.579979 C 11.619661 21.763702 11.682156 22.993401 11.720753 24.201035 C 11.746487 25.015312 11.985441 25.827759 11.902725 26.64019 C 11.854937 26.665924 11.755678 26.719238 11.706051 26.746803 C 11.430336 25.491386 11.340269 24.201035 11.320049 22.918037 C 11.375191 21.866646 11.367838 20.752754 11.88986 19.804291 Z"/>
            </g>
            <g id="d9be84ff">
                <path id="path27" fill="#d9be84" stroke="none" d="M 197.062119 20.831795 C 198.81752 20.085526 200.833908 20.024872 202.677536 20.458664 C 204.491745 21.186546 205.491653 23.118393 205.930969 24.925247 C 205.967743 25.456459 206.271011 26.017075 206.043091 26.533585 C 205.813324 26.649384 205.482483 26.689819 205.304169 26.474762 C 204.99353 25.656815 204.870392 24.778198 204.521164 23.974945 C 204.004639 22.846352 203.13707 21.774734 201.883453 21.460426 C 201.23645 21.199409 200.532471 21.300507 199.856049 21.291321 C 199.063828 21.340942 198.168671 21.848259 198.124542 22.721367 C 198.229324 23.2397 198.620834 23.634895 198.883698 24.07972 C 200.015976 25.719307 200.802658 27.557404 201.752975 29.301773 C 203.6315 32.818062 205.554169 36.31229 207.41983 39.837769 C 208.223083 41.427727 209.123749 43.008495 209.482193 44.773075 C 209.803864 46.035851 209.719299 47.554127 208.765335 48.531994 C 207.838928 49.487808 206.467697 49.748817 205.201248 49.888512 C 203.350266 49.936302 201.425781 49.96204 199.69429 49.213928 C 198.427841 48.671688 197.387466 47.66441 196.753342 46.445751 C 195.773621 44.752853 195.249771 42.841225 194.95015 40.920414 C 194.786545 40.297295 195.621063 40.067532 196.051163 40.315678 C 196.404083 40.580364 196.444519 41.050919 196.619141 41.427727 C 197.234924 42.953354 197.567596 44.607647 198.486664 45.997253 C 199.212723 47.17915 200.346817 48.144154 201.692322 48.524643 C 202.648117 48.741539 203.925598 48.565079 204.337357 47.539417 C 204.618561 46.390602 204.227036 45.232601 203.828186 44.162823 C 202.51947 40.703514 200.319229 37.696381 198.661285 34.41169 C 197.543701 32.312576 196.457382 30.193245 195.525482 28.004074 C 194.953827 26.693497 194.562317 25.252426 194.735092 23.813194 C 194.865601 22.471382 195.836136 21.337265 197.062119 20.831795 Z"/>
                <path id="path28" fill="#d9be84" stroke="none" d="M 212.774216 20.892456 C 212.671295 20.276688 213.386322 20.208679 213.821945 20.153526 C 215.12883 20.120445 216.384262 20.749077 217.354782 21.589088 C 218.468658 22.631287 218.507278 24.243309 218.680054 25.653137 C 219.209412 28.878998 219.45755 32.147148 219.431839 35.415298 C 219.492493 37.00893 219.235153 38.589695 219.180023 40.181492 C 219.038498 43.17944 219.139572 46.184738 219.032974 49.184521 C 219.043976 49.667942 218.948425 50.456482 219.577026 50.594341 C 220.65416 50.754261 221.753372 50.655003 222.839676 50.726688 C 224.563812 50.818592 226.293472 50.800213 228.013931 50.677059 C 228.039658 51.131073 227.754761 51.688015 227.249268 51.699043 C 225.229202 51.776245 223.210983 52.057476 221.190903 51.869987 C 219.700195 51.743156 218.435593 52.71368 216.987152 52.840504 C 216.246399 52.926895 215.487259 52.77066 214.770386 53.026154 C 214.134415 53.217319 213.820114 52.504135 213.742905 52.004169 C 213.00766 47.8666 212.833054 43.653671 212.78894 39.459118 C 212.74115 36.70013 212.713562 33.941139 212.706207 31.182144 C 212.739319 27.752243 213.049927 24.318672 212.774216 20.892456 Z"/>
                <path id="path29" fill="#d9be84" stroke="none" d="M 88.095741 21.680992 C 90.873116 21.625847 93.617409 20.822601 96.402122 21.096481 C 96.896576 21.116699 97.370804 21.776581 96.889229 22.144196 C 96.218315 22.46035 95.470215 22.631287 94.729454 22.679085 C 94.663284 22.732384 94.532776 22.837158 94.468452 22.890465 C 95.146706 23.57975 95.212875 24.572327 95.25148 25.487709 C 95.749596 29.393669 96.348824 33.299644 96.394783 37.244209 C 96.460945 40.683296 96.363533 44.127899 95.88195 47.53207 C 95.856216 47.991596 95.641159 48.3923 95.339714 48.728668 C 96.234863 48.855499 97.150238 48.708454 98.039886 48.910645 C 98.297203 48.895939 98.396477 49.223118 98.291702 49.4198 C 98.146492 49.840725 97.637337 49.78558 97.284424 49.862782 C 96.244049 49.895863 95.21656 50.063133 94.192734 50.223049 C 92.339928 50.322308 90.509171 49.765362 88.656372 50.041077 C 88.319992 49.774548 88.354919 49.066879 88.845695 49.017254 C 89.421021 48.862854 90.025742 48.855499 90.612106 48.737865 C 90.94664 48.629414 91.088173 48.25444 91.062439 47.925419 C 91.04406 42.264065 90.604759 36.626606 90.148911 30.989151 C 89.886063 28.424988 89.724304 25.840622 89.376907 23.283813 C 89.183907 22.445648 88.147217 22.899658 87.549828 22.752609 C 86.912003 22.498955 86.189629 23.037521 85.590424 22.65519 C 85.509544 22.149712 86.026047 21.793121 86.467186 21.717758 C 87.007584 21.675484 87.551666 21.715919 88.095741 21.680992 Z"/>
                <path id="path30" fill="#d9be84" stroke="none" d="M 123.765945 21.69754 C 126.79332 21.79863 129.754501 20.929214 132.780014 21.048683 C 133.281815 21.028465 133.927002 21.214119 133.963745 21.813339 C 133.895752 21.901566 133.761551 22.079857 133.693558 22.16993 C 132.943619 22.515495 132.112778 22.601883 131.318726 22.759956 C 131.34079 23.186401 131.815002 23.403297 131.88118 23.824226 C 132.020889 24.434471 132.083374 25.063103 132.092575 25.689896 C 132.489594 28.301842 132.77449 30.92849 133.057571 33.553299 C 133.362686 38.312145 133.349823 43.118786 132.675232 47.848221 C 132.638489 48.201134 132.309464 48.419868 132.228577 48.75808 C 133.158661 48.826088 134.107132 48.706615 135.022507 48.949245 C 135.268799 49.162464 135.119919 49.667942 134.800079 49.734112 C 133.83876 49.958359 132.838837 49.895863 131.871994 50.088863 C 129.850082 50.568611 127.811615 49.71941 125.780518 50.033722 C 125.177628 50.200993 125.050797 49.116512 125.611404 49.03931 C 126.328262 48.693745 127.493622 49.131214 127.872284 48.276501 C 127.896179 46.92733 127.877792 45.576328 127.857574 44.225319 C 127.675613 43.140839 127.830002 42.032467 127.684799 40.940632 C 127.394379 35.407944 126.894409 29.8918 126.361359 24.375656 C 126.216156 23.838928 126.436722 23.004425 125.758453 22.776505 C 125.216217 22.750771 124.666641 22.833481 124.137253 22.691948 C 123.582153 22.559608 122.81015 23.107361 122.41127 22.55777 C 122.453552 21.912598 123.203491 21.636879 123.765945 21.69754 Z"/>
                <path id="path31" fill="#d9be84" stroke="none" d="M 232.032013 21.692024 C 234.75058 21.680992 237.415833 20.942078 240.139893 21.046852 C 240.639877 21.017433 241.400818 21.153458 241.411865 21.793121 C 241.303406 22.322487 240.674774 22.320656 240.266724 22.473213 C 239.810883 22.660706 239.303574 22.594528 238.849548 22.754448 C 238.794418 23.096336 239.125259 23.3022 239.274155 23.570564 C 239.496567 24.182655 239.52597 24.840691 239.56456 25.485863 C 240.020401 28.970909 240.524063 32.455948 240.687637 35.970406 C 240.790588 39.960922 240.740952 43.96431 240.145416 47.914391 C 240.073715 48.225029 239.781464 48.436409 239.755737 48.75808 C 240.650879 48.809544 241.555237 48.741539 242.443024 48.923508 C 242.799652 49.077908 242.617645 49.599934 242.330933 49.723083 C 241.669189 49.93079 240.967041 49.848072 240.294312 49.973068 C 239.494705 50.015343 238.720871 50.27084 237.919479 50.246944 C 236.360764 50.208344 234.814911 49.814987 233.25621 50.031883 C 232.712128 50.188122 232.565079 49.274586 232.991501 49.074234 C 233.609131 48.85918 234.272675 48.862854 234.912338 48.743378 C 235.349808 48.618385 235.395767 48.10923 235.371872 47.728741 C 235.358978 41.622566 234.833298 35.543961 234.333328 29.470871 C 234.123779 27.586823 234.002457 25.70092 233.772705 23.818703 C 233.759842 23.43087 233.699203 22.918037 233.265381 22.783859 C 232.667999 22.745262 232.059601 22.840836 231.476913 22.677246 C 230.98616 22.690117 230.473312 22.894142 229.995422 22.728706 C 229.760132 22.493431 229.982529 22.155228 230.192078 21.987961 C 230.704926 21.550491 231.416275 21.743484 232.032013 21.692024 Z"/>
                <path id="path32" fill="#d9be84" stroke="none" d="M 102.885117 22.256325 C 103.839096 21.853783 104.848206 22.333519 105.677193 22.809586 C 106.469414 23.57975 106.546616 24.776352 107.149513 25.671516 C 107.094376 26.647545 107.542877 27.524323 108.097977 28.292648 C 109.270683 30.535133 110.312897 32.845634 111.3312 35.161636 C 111.969009 36.957462 112.698746 38.75145 113.636185 40.400227 C 113.564484 36.163406 113.37149 31.917389 113.638016 27.682396 C 113.860428 26.603432 113.615952 25.480354 113.899017 24.408737 C 114.018494 24.121994 114.18576 23.673492 114.584641 23.772758 C 115.292297 23.883041 115.994461 24.072365 116.674561 24.298454 C 117.358337 24.765335 118.209381 25.175232 118.450165 26.04097 C 118.755295 27.244926 119.224014 28.443375 119.167023 29.706146 C 119.178055 31.78688 119.369217 33.865776 119.240555 35.94651 C 119.224014 36.385811 119.049393 36.887615 119.328781 37.280972 C 119.523621 37.543819 119.356339 37.876514 119.330627 38.163261 C 119.293869 38.83601 119.183563 39.5014 119.132111 40.172302 C 119.067764 40.203548 118.940933 40.266048 118.876602 40.297295 C 118.404221 42.060036 118.711166 43.91468 118.424423 45.704994 C 118.369293 46.317081 118.372971 47.285755 117.521927 47.26738 C 116.487076 47.046806 115.303329 46.925491 114.531326 46.118568 C 113.970703 45.359432 113.764847 44.40913 113.419281 43.547058 C 112.470825 41.870712 111.347733 40.289944 110.540817 38.534554 C 109.833145 37.150467 109.221062 35.714905 108.454567 34.362068 L 108.278114 34.253616 C 108.399422 36.170753 108.923279 38.065842 108.77256 40.001362 C 108.846077 41.598675 108.778076 43.199661 108.452721 44.769402 C 108.313042 46.438396 107.855347 48.057766 107.31311 49.634857 C 107.193626 50.087029 106.677124 50.007992 106.322365 50.068649 C 105.90696 50.109089 105.611023 50.454647 105.217674 50.559422 C 104.947479 50.563099 104.769173 50.338848 104.557785 50.21386 C 104.204872 49.960197 103.756378 49.829697 103.486176 49.474937 C 103.252739 49.037476 103.136932 48.555889 103.032158 48.076145 C 102.710495 46.991665 102.401695 45.899834 102.236275 44.78043 C 102.238098 42.756676 101.993637 40.743954 101.951363 38.722038 C 101.723434 37.196415 101.660942 35.650574 101.482643 34.121269 C 101.254715 31.864082 101.396263 29.590355 101.357658 27.325806 C 101.306198 25.906792 101.508377 24.496971 101.484482 23.079788 C 101.613152 22.458511 102.388832 22.421753 102.885117 22.256325 Z"/>
                <path id="path33" fill="#d9be84" stroke="none" d="M 173.306503 24.094421 C 173.971893 24.006195 174.683228 24.245148 175.372513 24.285583 C 176.061798 24.313156 176.526855 24.888481 177.184891 25.022667 C 177.659134 25.537331 178.480759 25.642105 178.771164 26.338745 C 179.204956 27.535355 179.111206 28.831215 179.298691 30.073769 C 179.272964 30.939514 179.484344 31.790558 179.434723 32.658142 C 179.379593 33.34008 179.552368 34.007309 179.546844 34.687408 C 179.583618 36.279205 179.473343 37.880192 179.675522 39.46096 C 179.616684 40.810127 179.859329 42.148266 179.802338 43.497429 C 179.741684 44.098488 179.956757 44.721607 180.464081 45.072689 C 180.844543 45.197678 181.021011 44.754692 181.186432 44.499199 C 182.017258 42.988281 182.81131 41.455303 183.634796 39.938869 C 184.371872 38.600723 184.923294 37.17252 185.531708 35.77372 C 186.029831 34.170898 185.820282 32.465141 185.875443 30.810852 C 186.068451 29.603218 185.893814 28.296326 186.472809 27.176926 C 187.12352 26.358971 188.112411 25.901276 189.051697 25.496895 C 189.74649 25.188095 190.476212 25.647614 191.001907 26.085083 C 191.349304 26.311172 191.386063 26.759674 191.398941 27.13649 C 191.307037 28.360657 191.248199 29.601372 191.435684 30.81636 C 191.330933 33.948494 191.935654 37.071423 191.569885 40.198036 C 191.573547 42.398247 191.564362 44.605808 191.264755 46.785801 C 191.156311 47.339066 191.189392 47.945641 190.838318 48.423546 C 190.391647 49.03931 190.262985 49.908733 189.5737 50.324146 C 188.957932 50.675217 188.23555 50.699116 187.549942 50.737717 C 187.173141 50.767124 186.634567 50.586994 186.74118 50.110928 C 186.788971 49.528244 186.331284 49.096291 186.173203 48.570595 C 185.636475 46.541328 186.031677 44.394428 185.469223 42.365162 C 185.171448 42.854095 184.93985 43.387146 184.563034 43.822773 C 183.903168 44.598454 183.487732 45.541401 182.844406 46.326271 C 181.978668 47.408916 181.024673 48.465824 179.817062 49.169815 C 179.236206 49.441853 179.181061 50.272675 178.550613 50.456482 C 178.190353 50.614563 177.811676 50.392159 177.464279 50.307598 C 176.62796 49.936302 175.786087 49.553982 175.030624 49.035633 C 173.891006 48.111069 174.093201 46.47332 173.982925 45.164593 C 173.799118 43.944088 173.91124 42.699696 173.747635 41.477356 C 173.745804 39.512428 173.506836 37.562199 173.45723 35.599106 C 173.275238 34.488892 173.455399 33.356621 173.273407 32.246407 C 173.236649 29.930405 173.128204 27.616226 173.153931 25.298378 C 173.172302 24.895836 173.071198 24.454689 173.306503 24.094421 Z"/>
                <path id="path34" fill="#d9be84" stroke="none" d="M 60.380844 25.507927 C 60.888161 25.033691 61.452454 24.50248 62.198723 24.519028 C 63.112259 24.498802 64.176521 24.495132 64.873161 25.184418 C 65.319824 25.750557 65.566124 26.450867 65.976028 27.040901 C 66.779274 27.816582 67.325188 28.810997 67.781044 29.818275 C 68.672516 31.604912 69.196381 33.562485 70.255127 35.264572 C 70.600685 35.83255 70.907654 36.428089 71.295494 36.970333 C 71.359818 36.99239 71.486649 37.038338 71.55098 37.062237 C 72.041763 35.602783 72.310127 34.069809 72.813766 32.610352 C 73.192406 31.424774 73.633553 30.259422 74.048965 29.086716 C 74.324677 28.198906 74.712517 27.342346 75.267632 26.596077 C 75.624222 26.131042 75.434898 25.493217 75.666496 25.00061 C 76.153595 24.732246 76.732605 24.892159 77.261963 24.873772 C 77.815239 24.906868 78.362999 24.730408 78.916252 24.794739 C 79.245285 24.916054 79.51548 25.156845 79.844505 25.283676 C 80.702904 25.550201 81.01722 26.483963 81.419762 27.197144 C 81.976707 28.768715 82.131104 30.452415 82.357193 32.097519 C 82.366379 32.961426 82.302048 33.82901 82.476677 34.681892 C 82.026329 36.66888 82.131104 38.722038 82.114563 40.747631 C 82.359024 44.105843 82.597984 47.465897 82.450935 50.835136 C 82.177063 52.178791 81.906853 53.833084 80.53746 54.498474 C 79.204842 55.241074 77.750908 54.377159 76.352112 54.478252 C 75.879715 54.542587 75.513939 54.064678 75.559891 53.6217 C 75.59848 52.024391 75.87236 50.428913 75.809868 48.824253 C 75.56356 47.622135 75.229027 46.40163 75.394455 45.162754 C 75.495552 44.177532 75.298866 43.194145 75.423859 42.210762 C 75.186752 39.194435 75.37056 36.148701 75.271309 33.126862 C 74.844864 33.634171 74.874275 34.400665 74.635323 35.012749 C 74.317329 36.411545 73.727295 37.766232 72.848679 38.905849 C 72.530693 39.345158 71.900223 39.595139 71.381882 39.440739 C 70.631935 38.848869 70.036392 38.07687 69.510689 37.284645 C 68.154175 35.46492 67.161598 33.404411 66.282982 31.325523 C 66.262764 32.625053 66.474144 33.924599 66.396942 35.233322 C 66.57708 36.029221 66.338127 36.82328 66.396942 37.628372 C 66.446579 38.549259 66.216812 39.455448 66.260933 40.376331 C 66.02565 42.021435 66.260933 43.694111 66.023811 45.339207 C 65.952133 46.763737 65.476059 48.236061 64.433853 49.247013 C 63.680229 50.019024 62.428482 50.055779 61.531494 49.528244 C 60.665749 48.929024 60.53524 47.76918 60.333046 46.815205 C 60.377159 46.136944 60.215408 45.473392 60.200706 44.800644 C 60.16394 40.810127 60.263191 36.819603 60.193352 32.829086 C 59.945206 31.189499 60.174973 29.514984 59.958069 27.873558 C 60.070198 27.092369 59.641922 26.068542 60.380844 25.507927 Z"/>
                <path id="path35" fill="#d9be84" stroke="none" d="M 148.740265 24.893997 C 149.317413 24.43264 150.093094 24.513512 150.784241 24.522705 C 151.447784 24.598061 152.201401 24.737762 152.624161 25.314919 C 153.118607 26.044647 153.38147 26.932449 154.067078 27.522484 C 155.634964 29.542557 156.259933 32.082809 157.379349 34.345528 C 157.879288 35.235161 158.373749 36.133991 158.941742 36.983196 C 159.011566 37.003414 159.15126 37.043854 159.222946 37.064072 C 159.778076 35.053192 160.239441 33.011055 160.985703 31.057159 C 161.588593 29.503952 161.956207 27.822098 162.98555 26.474762 C 163.367874 26.026268 162.924896 25.223022 163.463455 24.905022 C 164.257523 24.769012 165.068115 24.958328 165.864014 24.811279 C 166.685638 24.579681 167.292221 25.289192 168.009079 25.541008 C 169.067841 26.673279 169.453842 28.215454 169.661545 29.707993 C 169.804886 30.746513 170.053055 31.781364 170.001587 32.834602 C 169.964828 33.450363 169.996063 34.069809 170.113708 34.676376 C 169.68544 36.733215 169.758957 38.848869 169.764465 40.938793 C 169.957474 42.765865 169.953796 44.609482 170.124756 46.434723 C 170.073273 48.151508 170.258926 49.884838 169.961166 51.585083 C 169.661545 52.676914 169.328842 53.954399 168.209427 54.481934 C 166.880493 55.248417 165.413681 54.382675 164.014893 54.480095 C 163.531464 54.555458 163.134445 54.064678 163.204285 53.605156 C 163.233704 51.947186 163.542496 50.300247 163.435883 48.638603 C 163.162018 47.69014 163.00209 46.706757 163.00209 45.719696 C 163.059067 44.90358 163.116058 44.081947 163.022308 43.265831 C 163.025986 42.550812 163.145462 41.832111 162.991074 41.124443 C 162.866074 38.404049 163.049881 35.667114 162.875259 32.948563 C 162.450653 34.044067 162.285233 35.257217 161.88269 36.372948 C 161.480148 37.330597 161.039001 38.293766 160.342361 39.074959 C 159.954514 39.409492 159.281769 39.698074 158.840637 39.310234 C 157.886642 38.457355 157.202881 37.369202 156.482346 36.325153 C 155.460358 34.803207 154.739822 33.099289 153.931061 31.472565 C 154.059738 33.821655 154.092819 36.181786 154.024796 38.536396 C 153.842819 40.361629 153.754608 42.197891 153.778503 44.034161 C 153.638794 45.385162 153.679245 46.835426 152.949509 48.04306 C 152.515717 48.963943 151.695923 49.844398 150.616959 49.886677 C 149.817383 49.894024 148.900177 49.60545 148.541748 48.824253 C 148.196167 47.95483 147.889221 47.037621 147.966415 46.089157 C 147.834061 45.168266 147.824875 44.240028 147.806503 43.313622 C 147.826721 39.817554 147.907608 36.32148 147.830399 32.825417 C 147.595123 31.308975 147.823044 29.764969 147.617172 28.250374 C 147.630035 27.509621 147.569382 26.767021 147.607986 26.026268 C 147.859802 25.544685 148.339554 25.24324 148.740265 24.893997 Z"/>
                <path id="path36" fill="#d9be84" stroke="none" d="M 245.823303 26.033623 C 246.264465 25.333305 246.986816 24.695488 247.825012 24.526382 C 248.810242 24.500641 249.970062 24.445503 250.725525 25.199127 C 251.15564 25.76342 251.409302 26.44352 251.804504 27.029869 C 252.916534 28.103325 253.512085 29.560936 254.127838 30.946869 C 254.815308 32.560722 255.38327 34.237076 256.355652 35.711235 C 256.701202 36.163406 256.840881 36.850853 257.388672 37.095318 C 257.857361 35.630356 258.147797 34.108406 258.63855 32.647118 C 259.066833 31.307137 259.581512 29.996567 260.030029 28.662109 C 260.279999 27.978333 260.577759 27.303749 261.026245 26.724747 C 261.382843 26.265228 261.357117 25.662323 261.426971 25.116402 C 261.608948 24.780029 262.044556 24.877449 262.368073 24.848045 C 263.038971 24.903191 263.713562 24.860909 264.38446 24.780029 C 264.939575 24.691811 265.321899 25.197281 265.821869 25.346169 C 266.443146 25.548363 266.683929 26.202728 267.009277 26.708206 C 267.593781 27.676888 267.650787 28.833054 267.917297 29.90834 C 267.979797 30.891731 268.261017 31.856735 268.200348 32.849312 C 268.180176 33.27758 268.152557 33.711372 268.25 34.134132 C 268.455872 34.876732 268.040466 35.59359 268.051453 36.336185 C 267.659973 40.690651 268.465027 45.023052 268.321686 49.375683 C 268.400726 50.809402 268.099243 52.261501 267.446747 53.538986 C 266.91922 54.35878 265.926636 54.855068 264.957947 54.810947 C 263.974548 54.695152 263.004028 54.434139 262.009644 54.470905 C 261.436127 54.39003 261.333221 53.715439 261.399384 53.241215 C 261.528046 52.199005 261.515198 51.145771 261.649384 50.101734 C 261.846069 48.548538 261.055664 47.089085 261.199036 45.537727 C 261.289124 44.736313 261.296448 43.927547 261.199036 43.126137 C 261.294617 42.394569 261.276215 41.664841 261.162262 40.938793 C 261.132874 38.347069 261.12735 35.753502 261.140228 33.161789 L 260.961914 33.244499 C 260.428864 35.119362 260.061249 37.108189 258.848083 38.694469 C 258.522766 39.240383 257.838989 39.630062 257.210358 39.437065 C 256.539459 38.89299 255.97699 38.218399 255.497253 37.501541 C 254.109467 35.611977 252.990082 33.522049 252.164764 31.331032 C 252.037933 31.632477 252.09491 31.967018 252.124329 32.283173 C 252.311829 33.44117 252.162933 34.617561 252.302612 35.779236 C 252.278717 37.249718 252.177612 38.716526 252.102264 40.183334 C 251.843109 42.515884 252.18866 44.916447 251.537964 47.203045 C 251.148285 48.127609 250.675903 49.114674 249.760529 49.623825 C 248.799194 50.131142 247.400391 49.89954 246.806671 48.947403 C 246.133942 47.719555 246.181732 46.309727 246.043884 44.96056 C 245.992432 40.914902 246.106384 36.869236 246.029175 32.82357 C 245.863739 31.858566 245.931732 30.875183 245.896851 29.900986 C 245.922577 28.610641 245.69281 27.322128 245.823303 26.033623 Z"/>
            </g>
            <g id="d3ac8fff">
                <path id="path37" fill="#d3ac8f" stroke="none" d="M 39.444855 22.554092 C 40.051426 23.243378 40.185608 24.230446 40.215019 25.118248 C 40.187443 26.158607 40.108406 27.221031 39.757328 28.20993 L 39.562489 28.244858 C 39.443012 27.948921 39.540432 27.627258 39.573517 27.325806 C 39.753654 26.298309 39.799606 25.250587 39.711376 24.212059 C 39.650723 23.653275 39.413605 23.120232 39.444855 22.554092 Z"/>
            </g>
            <g id="d8b195ff">
                <path id="path38" fill="#d8b195" stroke="none" d="M 10.856846 28.617996 C 10.404675 27.195305 10.0683 25.632919 10.489225 24.173462 C 10.531502 25.631073 10.691418 27.103394 11.226307 28.472778 C 11.310856 28.801804 11.560839 29.169426 11.364164 29.505798 C 11.029629 29.331177 10.987352 28.932304 10.856846 28.617996 Z"/>
            </g>
            <g id="edc7acff">
                <path id="path39" fill="#edc7ac" stroke="none" d="M 40.376766 26.967377 C 40.573448 26.000534 40.455811 24.960175 40.924526 24.059502 C 41.448387 25.811211 41.531097 27.678719 41.509041 29.498444 C 41.237007 29.798058 40.884087 30.06826 40.766453 30.472633 C 40.452133 31.536903 40.501762 32.661819 40.529331 33.759163 C 40.529331 34.20031 40.911655 34.485214 41.178181 34.786659 C 40.869381 34.895111 40.86203 35.248024 40.768288 35.51088 C 40.135979 37.817696 38.898937 39.971954 37.171116 41.629921 C 35.529694 43.133484 33.529835 44.201424 31.428886 44.907257 C 30.548431 45.197678 29.616524 45.254658 28.701145 45.366783 C 26.081848 45.579998 23.453362 45.427437 20.850613 45.116798 C 18.062206 44.648083 15.150652 43.67757 13.242702 41.484707 C 13.555182 41.530663 13.882364 41.539852 14.169106 41.690582 C 15.323435 42.332077 16.668928 42.44236 17.946407 42.673962 C 20.681503 42.920265 23.407406 43.359573 26.157211 43.28421 C 27.94936 43.19598 29.68269 42.677639 31.436241 42.339432 C 33.19714 42.107826 34.847759 41.254948 36.141781 40.049149 C 37.138031 39.02533 37.785049 37.727627 38.373238 36.444633 C 38.796005 34.759094 39.351109 33.09745 39.538593 31.364113 C 39.691158 29.875252 40.075321 28.426834 40.376766 26.967377 Z"/>
            </g>
            <g id="44382eff">
                <path id="path40" fill="#44382e" stroke="none" d="M 16.861927 28.899223 C 17.527321 28.524254 18.249691 28.719093 18.826859 29.138176 C 19.571289 29.798058 19.461002 31.047966 18.804798 31.73909 C 18.4188 32.231697 17.725834 32.215157 17.152348 32.198616 C 16.301308 31.939445 15.657972 30.996498 15.828915 30.101341 C 15.911627 29.542557 16.284761 29.016861 16.861927 28.899223 M 16.35829 30.075607 C 16.448355 30.327431 16.51269 30.608658 16.775536 30.739166 C 17.12661 30.693214 17.433578 30.468956 17.424385 30.086639 C 17.352699 29.520508 16.485115 29.581154 16.35829 30.075607 Z"/>
                <path id="path41" fill="#44382e" stroke="none" d="M 33.044579 28.897385 C 33.772469 28.478294 34.649246 28.752174 35.222733 29.301773 C 35.658363 30.016792 35.575645 30.970764 35.134502 31.663727 C 34.680492 32.154503 33.978333 32.272141 33.340515 32.182076 C 31.871872 31.897171 31.498737 29.366096 33.044579 28.897385 M 32.520721 30.090309 C 32.649391 30.41198 32.778053 30.718941 33.176926 30.748352 C 33.502266 30.566376 33.702618 30.257576 33.57579 29.87709 C 33.246773 29.524178 32.7174 29.691444 32.520721 30.090309 Z"/>
            </g>
            <g id="c6b9b3ff">
                <path id="path42" fill="#c6b9b3" stroke="none" d="M 16.35829 30.075607 C 16.485115 29.581154 17.352699 29.520508 17.424385 30.086639 C 17.433578 30.468956 17.12661 30.693214 16.775536 30.739166 C 16.51269 30.608658 16.448355 30.327431 16.35829 30.075607 Z"/>
            </g>
            <g id="c5b9b3ff">
                <path id="path43" fill="#c5b9b3" stroke="none" d="M 32.520721 30.090309 C 32.7174 29.691444 33.246773 29.524178 33.57579 29.87709 C 33.702618 30.257576 33.502266 30.566376 33.176926 30.748352 C 32.778053 30.718941 32.649391 30.41198 32.520721 30.090309 Z"/>
            </g>
            <g id="dbb599ff">
                <path id="path44" fill="#dbb599" stroke="none" d="M 27.326244 31.617775 C 27.548653 31.375145 27.947521 31.750114 27.714085 31.981728 C 27.500866 32.218834 27.083614 31.84938 27.326244 31.617775 Z"/>
            </g>
            <g id="d5ae92ff">
                <path id="path45" fill="#d5ae92" stroke="none" d="M 22.703415 32.340149 C 22.999348 32.246407 23.104122 32.349342 23.014053 32.648949 C 22.705254 32.739014 22.602322 32.636086 22.703415 32.340149 Z"/>
            </g>
        </g>
        <g id="d2aa8dff">
            <path id="path46" fill="#d2aa8d" stroke="none" d="M 25.662762 32.288681 C 25.962372 32.200447 26.059792 32.310745 25.955017 32.619545 C 25.655411 32.694901 25.557987 32.584618 25.662762 32.288681 Z"/>
        </g>
        <g id="e5b5a1ff">
            <path id="path47" fill="#e5b5a1" stroke="none" d="M 14.652529 32.735336 C 15.904278 32.248245 17.481369 32.948563 18.029125 34.170898 C 18.424313 34.907974 18.55666 35.911583 18.001549 36.606384 C 16.38402 37.711086 13.718771 36.679913 13.437544 34.691086 C 13.30336 33.819824 13.900743 33.08091 14.652529 32.735336 Z"/>
            <path id="path48" fill="#e5b5a1" stroke="none" d="M 35.049953 32.722473 C 35.803574 32.492714 36.735485 32.461464 37.321846 33.079063 C 38.018486 33.560654 38.24641 34.571602 37.832836 35.308685 C 37.176636 36.856365 35.125313 37.461105 33.660343 36.74976 C 32.4086 35.474113 33.456314 33.161789 35.049953 32.722473 Z"/>
        </g>
        <g id="deb69cff">
            <path id="path49" fill="#deb69c" stroke="none" d="M 28.978699 33.04966 C 29.153313 32.786812 29.634899 33.060692 29.423519 33.330887 C 29.24522 33.591904 28.736069 33.334564 28.978699 33.04966 Z"/>
        </g>
        <g id="dab599ff">
            <path id="path50" fill="#dab599" stroke="none" d="M 31.007961 33.408089 C 31.149498 33.193031 31.57777 33.397064 31.388447 33.630493 C 31.256107 33.847397 30.864586 33.628662 31.007961 33.408089 Z"/>
        </g>
        <g id="deb89dff">
            <path id="path51" fill="#deb89d" stroke="none" d="M 28.050453 33.621307 C 28.328011 33.400742 28.576153 33.898857 28.328011 34.075317 C 28.050453 34.297729 27.782093 33.792252 28.050453 33.621307 Z"/>
        </g>
        <g id="c2a997ff">
            <path id="path52" fill="#c2a997" stroke="none" d="M 23.87796 36.225903 C 23.11515 35.509041 23.438656 33.952171 24.499241 33.720566 C 24.837452 33.676453 25.460567 33.619469 25.499168 34.097374 C 25.319038 34.538521 24.706951 34.110237 24.399982 34.396988 C 24.126106 34.707626 23.903694 35.178185 24.16103 35.569695 C 24.320946 36.005329 24.802528 36.088043 25.183014 36.235088 C 25.18853 36.336185 25.197723 36.542053 25.203236 36.64315 C 24.738197 36.9207 24.208824 36.556759 23.87796 36.225903 Z"/>
        </g>
        <g id="b1a5a3ff">
            <path id="path53" fill="#b1a5a3" stroke="none" d="M 7.110796 34.985176 C 7.031755 34.731522 7.09609 34.474182 7.138365 34.220535 C 7.86993 35.214943 9.311001 35.341766 10.377102 34.869385 C 10.818247 37.242371 11.559004 39.679695 13.242702 41.484707 C 15.150652 43.67757 18.062206 44.648083 20.850613 45.116798 C 20.609814 45.418251 20.385571 45.732563 20.155804 46.043201 C 19.530849 46.625881 18.808475 47.076218 18.093456 47.533901 C 16.619297 48.708454 15.474159 50.268997 14.722376 51.993141 C 13.183884 50.419727 11.924784 48.581623 10.921181 46.62772 C 10.279682 45.188488 9.625319 43.75293 9.07205 42.276932 C 8.860666 41.345016 8.511429 40.451694 8.243065 39.538158 C 7.691633 38.067677 7.463711 36.508965 7.110796 34.985176 Z"/>
        </g>
        <g id="b0a5a3ff">
            <path id="path54" fill="#b0a5a3" stroke="none" d="M 40.768288 35.51088 C 40.86203 35.248024 40.869381 34.895111 41.178181 34.786659 C 41.667122 35.246193 42.350895 35.124878 42.957466 35.097305 C 42.514481 37.481323 41.339935 39.663155 39.775707 41.495735 C 37.592045 44.159149 34.864304 46.335461 31.884735 48.048576 C 31.061268 47.269215 29.974949 46.85564 29.160667 46.067101 C 28.998913 45.837337 28.846355 45.603897 28.701145 45.366783 C 29.616524 45.254658 30.548431 45.197678 31.428886 44.907257 C 33.529835 44.201424 35.529694 43.133484 37.171116 41.629921 C 38.898937 39.971954 40.135979 37.817696 40.768288 35.51088 Z"/>
        </g>
        <g id="c4a997ff">
            <path id="path55" fill="#c4a997" stroke="none" d="M 26.221542 36.089878 C 26.103905 35.619324 26.760105 35.411621 27.089127 35.211266 C 27.166325 35.270088 27.324402 35.389565 27.403446 35.44838 C 27.315216 35.974083 26.714157 36.349049 26.221542 36.089878 Z"/>
        </g>
        <g id="d8b295ff">
            <path id="path56" fill="#d8b295" stroke="none" d="M 30.805771 35.24987 C 31.099865 35.150612 31.202801 35.25354 31.110897 35.558662 C 30.813122 35.652412 30.710186 35.551315 30.805771 35.24987 Z"/>
        </g>
        <g id="705f52ff">
            <path id="path57" fill="#705f52" stroke="none" d="M 27.69754 38.604404 C 27.991638 38.468384 28.226913 38.731236 28.19199 39.021648 C 27.28764 40.865269 24.379765 40.826668 23.431305 39.041874 C 23.38903 38.777184 23.719883 38.462864 23.951488 38.709179 C 24.438583 39.319424 25.164635 39.869019 25.995457 39.749538 C 26.752754 39.766087 27.30051 39.177891 27.69754 38.604404 Z"/>
        </g>
        <g id="c7a996ff">
            <path id="path58" fill="#c7a996" stroke="none" d="M 24.945904 41.153851 C 25.300652 40.727413 26.368591 40.525219 26.477036 41.256786 C 26.140667 41.479191 25.697685 41.350533 25.348446 41.554558 C 25.080086 41.697926 24.745544 41.440598 24.945904 41.153851 Z"/>
        </g>
        <g id="ddb8a0ff">
            <path id="path59" fill="#ddb8a0" stroke="none" d="M 20.850613 45.116798 C 23.453362 45.427437 26.081848 45.579998 28.701145 45.366783 C 28.846355 45.603897 28.998913 45.837337 29.160667 46.067101 C 27.30051 46.861156 25.271244 47.42178 23.232788 47.219589 C 22.148312 47.026592 21.06567 46.679188 20.155804 46.043201 C 20.385571 45.732563 20.609814 45.418251 20.850613 45.116798 Z"/>
        </g>
        <g id="eeebe9ff">
            <path id="path60" fill="#eeebe9" stroke="none" d="M 35.198837 47.739769 C 36.174866 46.919975 37.310814 46.317081 38.297874 45.511993 C 38.768429 45.659042 38.647118 46.241718 38.661819 46.622208 C 38.591972 48.017326 37.437645 48.947403 36.85313 50.125629 C 36.582928 50.825947 36.187737 51.719265 36.783279 52.369949 C 37.500141 52.897491 38.433899 52.862564 39.279419 52.941601 C 40.654324 53.03167 41.996136 52.641991 43.258915 52.142025 L 43.396774 52.19165 C 43.150471 53.998508 41.96489 55.513107 40.657997 56.709713 C 39.016575 57.965134 37.26302 59.062481 35.592186 60.275627 C 34.952534 60.797653 34.412128 61.428116 33.820259 61.997932 C 33.292725 62.876545 32.566673 63.751484 32.575859 64.830444 C 32.432491 65.679649 32.366322 66.813766 33.2192 67.319244 C 33.739384 67.451584 34.318382 67.449738 34.810993 67.216309 C 36.228176 66.464523 37.391689 65.157623 39.012897 64.843315 C 37.926579 66.016022 36.786957 67.254906 35.259491 67.861481 C 34.143768 68.563629 32.956348 69.179398 31.97113 70.065369 C 31.390285 70.782227 30.627476 71.545036 30.719383 72.548637 C 30.653206 73.331673 31.368233 73.958466 32.061195 74.16433 C 32.621815 74.210281 33.217365 74.144112 33.682404 73.800385 C 33.978333 73.574303 34.38456 73.544891 34.695198 73.765465 C 35.068333 74.394096 34.504032 75.031914 34.434185 75.664223 C 34.465439 76.458282 34.849598 77.167786 35.151043 77.884644 C 35.180454 78.45079 34.930477 79.027946 34.493008 79.393738 C 34.018772 79.825691 33.384628 80.00766 32.8479 80.344032 C 31.983997 80.893631 30.949146 81.040672 30.044796 81.503876 C 29.864658 80.904655 30.414257 80.480057 30.774521 80.095886 C 31.702763 79.222786 32.89753 78.338661 32.983921 76.954567 C 33.147514 76.092499 32.63652 75.120148 31.805702 74.820534 C 28.787533 74.449242 25.861275 75.609085 22.859653 75.660545 C 21.650185 75.833328 20.422329 75.859062 19.214695 76.006104 C 20.330425 74.565033 21.822964 73.429092 23.422115 72.568863 C 24.243744 72.25087 24.868698 71.585472 25.736282 71.364899 C 26.97884 70.543274 28.355579 69.888901 29.432709 68.831993 C 30.065018 68.168442 30.787392 67.556351 31.191772 66.7145 C 31.78915 65.470108 32.401245 64.086014 31.980316 62.685387 C 31.81673 62.446426 31.605343 62.113731 31.274487 62.144981 C 28.769154 62.301216 26.396164 63.187183 24.043392 63.988598 C 23.157425 64.459152 22.151985 64.613556 21.267857 65.080429 C 20.164997 65.541794 19.038242 65.966393 17.898617 66.299088 C 17.275501 66.69796 16.496147 66.679581 15.817884 66.953453 C 15.406149 67.161163 14.757299 66.648331 15.062426 66.218216 C 15.861998 64.790009 17.411518 64.030869 18.869133 63.440845 C 20.111691 63.15226 21.229256 62.501575 22.46814 62.200123 C 22.837601 62.102707 23.196026 61.966686 23.541592 61.806767 C 24.657318 61.277397 25.898037 61.071526 26.982517 60.470467 C 28.800404 59.817944 30.658722 59.044098 32.064869 57.669201 C 32.772541 56.849411 33.406689 55.840286 33.340515 54.713528 C 33.448959 53.559204 32.599754 52.283562 31.371906 52.254154 C 29.256248 52.007843 27.16449 52.662205 25.184853 53.345982 C 23.775032 53.572071 22.431377 54.09042 21.02523 54.351425 C 19.534527 54.64185 18.062206 54.99844 16.593565 55.378929 C 14.676422 55.566414 12.862217 56.397232 10.93956 56.518547 C 10.866037 56.272243 11.187704 56.161957 11.301666 55.991013 C 12.362253 55.029682 13.604809 54.26136 14.959492 53.792645 C 16.48144 53.07946 18.178009 52.93792 19.804729 52.5942 C 21.538055 52.357086 23.27874 52.187981 25.021259 52.05196 C 27.829884 51.518913 30.60358 50.627434 33.035385 49.096291 C 33.733868 48.607353 34.500355 48.226871 35.198837 47.739769 Z"/>
        </g>
        <g id="c4daf2ff">
            <path id="path61" fill="#c4daf2" stroke="none" d="M 18.093456 47.533901 C 18.808475 47.076218 19.530849 46.625881 20.155804 46.043201 C 21.06567 46.679188 22.148312 47.026592 23.232788 47.219589 C 25.271244 47.42178 27.30051 46.861156 29.160667 46.067101 C 29.974949 46.85564 31.061268 47.269215 31.884735 48.048576 C 29.473148 49.294807 26.83363 50.188122 24.116913 50.421566 C 21.990234 50.794701 19.859867 51.158642 17.714806 51.425167 C 16.711205 51.529942 15.75355 51.869987 14.781195 52.121811 L 14.722376 51.993141 C 15.474159 50.268997 16.619297 48.708454 18.093456 47.533901 Z"/>
        </g>
        <g id="8f8275ff">
            <path id="path62" fill="#8f8275" stroke="none" d="M 72.199829 63.062195 C 73.696053 61.007198 76.512024 60.242542 78.921776 60.867496 C 79.55777 61.042122 80.182709 61.32151 80.690025 61.755302 C 80.798485 62.779125 80.708405 63.830521 80.734146 64.867218 C 80.381226 64.905807 80.02832 64.918678 79.6754 64.924194 C 79.649666 64.043739 79.605545 63.165127 79.579819 62.286514 C 78.094627 61.681778 76.30983 61.665237 74.88163 62.433559 C 73.262253 63.28828 72.379974 65.071243 72.139183 66.828461 C 71.911255 68.695976 71.883675 70.717888 72.758614 72.436516 C 73.310051 73.500778 74.407394 74.206612 75.59481 74.338951 C 77.267479 74.498871 78.987946 74.236023 80.550339 73.616577 C 80.647751 73.947433 80.741508 74.280136 80.835236 74.612831 C 79.835304 75.246979 78.605629 75.351746 77.454971 75.48777 C 75.848473 75.660545 74.072861 75.526367 72.751266 74.500702 C 71.256889 73.357407 70.670532 71.407181 70.60804 69.592972 C 70.466507 67.339455 70.786339 64.900299 72.199829 63.062195 Z"/>
            <path id="path63" fill="#8f8275" stroke="none" d="M 103.964081 60.637737 C 105.656975 60.555019 107.502426 60.970432 108.695358 62.255264 C 109.74308 63.326881 110.167671 64.834122 110.384575 66.282547 C 110.551849 68.043449 110.555519 69.883392 109.904831 71.55423 C 109.460007 72.754509 108.64389 73.809578 107.599854 74.548492 C 105.811371 75.778183 103.394272 75.81311 101.423828 75.028244 C 99.514046 74.281967 98.481018 72.276604 98.185089 70.344757 C 97.874443 67.819206 98.015991 64.994041 99.629829 62.902279 C 100.649994 61.560463 102.267517 60.676334 103.964081 60.637737 M 103.271111 61.985062 C 101.89621 62.301216 100.789673 63.343426 100.188629 64.59333 C 99.350449 66.527016 99.308167 68.747444 99.765862 70.784065 C 100.094872 72.08728 100.899971 73.359238 102.177452 73.899643 C 103.831741 74.565033 105.945564 74.417992 107.246933 73.105583 C 108.792786 71.660835 109.118126 69.392624 109.031731 67.376221 C 108.993126 65.67598 108.500519 63.825005 107.110909 62.729496 C 106.026443 61.911541 104.578011 61.75898 103.271111 61.985062 Z"/>
            <path id="path64" fill="#8f8275" stroke="none" d="M 226.43869 60.733318 C 227.90181 60.521935 229.473404 60.599136 230.807846 61.288425 C 231.853745 61.77552 232.634933 62.700085 233.120193 63.729424 C 233.890335 65.514221 234.009811 67.50856 233.840714 69.423859 C 233.660583 71.135139 232.978638 72.864792 231.666229 74.019119 C 230.68837 74.974937 229.328171 75.495117 227.969833 75.53923 C 226.207092 75.616432 224.260529 75.155075 223.085999 73.750755 C 221.758865 72.215942 221.459244 70.094772 221.477661 68.135361 C 221.525421 66.330338 221.872818 64.43158 223.006958 62.9758 C 223.828583 61.84169 225.074814 61.047638 226.43869 60.733318 M 226.780563 61.972202 C 224.88916 62.356361 223.552856 64.082336 223.170532 65.905739 C 222.812088 67.541641 222.815781 69.263947 223.216492 70.892509 C 223.569382 72.133224 224.337738 73.350052 225.561905 73.879425 C 226.776901 74.381226 228.205109 74.438202 229.432953 73.940079 C 230.484344 73.487907 231.294937 72.590912 231.785721 71.572601 C 232.519135 69.916473 232.577927 68.047127 232.370239 66.273361 C 232.169876 64.911324 231.605591 63.532749 230.482513 62.681705 C 229.418243 61.931763 228.04335 61.764492 226.780563 61.972202 Z"/>
            <path id="path65" fill="#8f8275" stroke="none" d="M 85.489319 60.698391 C 85.958038 60.683689 86.426758 60.694717 86.897308 60.689201 C 86.954292 65.192551 86.895462 69.701416 86.926704 74.206612 C 89.148979 74.226822 91.371239 74.197418 93.593513 74.219475 C 93.558586 74.638565 93.531013 75.057648 93.485062 75.474899 C 90.819809 75.484085 88.154564 75.482254 85.489319 75.476738 C 85.478287 70.550621 85.478287 65.624512 85.489319 60.698391 Z"/>
            <path id="path66" fill="#8f8275" stroke="none" d="M 114.939392 61.953815 C 114.976166 61.531052 114.976166 61.102776 115.064377 60.689201 C 118.244293 60.700233 121.42421 60.681847 124.604141 60.698391 C 124.582077 61.115643 124.539795 61.53289 124.499359 61.951977 C 123.163055 61.966686 121.826752 61.96117 120.492294 61.951977 C 120.389359 66.449814 120.4776 70.967873 120.448181 75.474899 C 120.005203 75.485931 119.564056 75.482254 119.122925 75.474899 C 119.106369 70.97155 119.128418 66.464523 119.111893 61.96117 C 117.720444 61.951977 116.328995 61.968521 114.939392 61.953815 Z"/>
            <path id="path67" fill="#8f8275" stroke="none" d="M 129.267395 60.698391 C 129.706696 60.689201 130.146011 60.683689 130.587158 60.698391 C 130.607376 62.970291 130.57428 65.244019 130.603699 67.517746 C 132.973007 67.514076 135.344177 67.515915 137.71347 67.515915 L 137.777817 67.414825 C 137.77597 65.185196 137.779663 62.955582 137.774139 60.725967 C 138.2061 60.650604 138.658264 60.703907 139.099411 60.698391 C 139.112274 65.624512 139.110443 70.550621 139.101257 75.476738 C 138.658264 75.480415 138.215286 75.48777 137.77597 75.471222 C 137.774139 73.245277 137.783325 71.017502 137.770447 68.789719 C 135.379089 68.780525 132.985886 68.778694 130.592667 68.79155 C 130.588989 71.019341 130.600037 73.247116 130.587158 75.474899 C 130.146011 75.484085 129.704865 75.482254 129.267395 75.476738 C 129.258209 70.550621 129.258209 65.624512 129.267395 60.698391 Z"/>
            <path id="path68" fill="#8f8275" stroke="none" d="M 144.426224 61.665237 C 144.451965 61.343567 144.352707 60.985142 144.481369 60.685528 C 145.716583 60.705742 146.951782 60.676334 148.186981 60.700233 C 148.18515 61.038441 148.190659 61.376652 148.18515 61.714863 C 147.804657 61.797577 147.411301 61.806767 147.032669 61.878456 C 147.014282 65.995804 147.032669 70.11499 147.023468 74.232338 L 147.082291 74.327927 C 147.481155 74.395935 147.905746 74.370193 148.295425 74.502541 C 148.289917 74.82605 148.297272 75.15139 148.28624 75.476738 C 146.964645 75.482254 145.644897 75.484085 144.325134 75.474899 C 144.363739 75.145874 144.207489 74.72863 144.400497 74.456589 C 144.792007 74.40329 145.189056 74.373878 145.584229 74.315056 C 145.595261 70.177483 145.584229 66.039917 145.591583 61.902351 C 145.218445 61.753468 144.764435 61.865585 144.426224 61.665237 Z"/>
            <path id="path69" fill="#8f8275" stroke="none" d="M 153.837311 60.698391 C 154.350143 60.698391 154.870316 60.663471 155.384995 60.714939 C 158.009811 64.729355 160.625427 68.749283 163.248413 72.765533 C 163.419342 73.01368 163.553528 73.294907 163.788803 73.495262 C 163.737335 69.249245 163.72998 65.003227 163.696899 60.757214 C 164.082886 60.595459 164.588379 60.735157 165.020325 60.698391 C 165.02951 65.624512 165.031357 70.550621 165.018494 75.476738 C 164.507507 75.480415 163.998352 75.489601 163.489182 75.473061 C 160.665863 71.193954 157.873795 66.890961 155.061493 62.604511 C 155.083542 66.892792 155.125824 71.181091 155.160751 75.469383 C 154.719604 75.489601 154.276627 75.482254 153.837311 75.474899 C 153.826294 70.550621 153.824448 65.622665 153.837311 60.698391 Z"/>
            <path id="path70" fill="#8f8275" stroke="none" d="M 173.07489 61.736923 C 174.705292 60.610168 176.837479 60.43187 178.723373 60.924477 C 179.311584 61.078876 179.844635 61.396873 180.331726 61.755302 C 180.278427 62.12476 179.982498 62.417015 179.824402 62.747879 C 178.40538 61.749786 176.431259 61.578842 174.821075 62.187256 C 173.832184 62.584286 173.01976 63.341583 172.499557 64.266144 C 171.527222 65.979263 171.393021 68.030586 171.552933 69.958748 C 171.679764 71.631424 172.437073 73.49894 174.13179 74.1147 C 175.765869 74.649597 177.535965 74.324242 179.170044 73.943764 C 179.219666 72.272919 179.199463 70.596573 179.300552 68.929413 C 179.668167 68.97905 180.112991 68.8228 180.438339 69.008453 C 180.429138 70.864944 180.438339 72.723259 180.432831 74.581581 C 179.857498 75.042946 179.072632 75.138527 178.370483 75.298447 C 176.80809 75.53923 175.162964 75.745102 173.633667 75.228592 C 172.297363 74.824211 171.225769 73.748917 170.705582 72.471443 C 170.253403 71.453125 170.110031 70.324539 170.069595 69.219833 C 169.93541 66.47187 170.689041 63.378349 173.07489 61.736923 Z"/>
            <path id="path71" fill="#8f8275" stroke="none" d="M 194.920731 61.883972 C 195.839783 60.998001 197.159546 60.692879 198.402115 60.665306 C 199.731049 60.643253 201.052643 60.810516 202.354034 61.077045 C 202.274994 61.47591 202.203293 61.876617 202.102203 62.26997 C 200.453445 61.944626 198.718246 61.724056 197.076843 62.200123 C 196.341599 62.405991 195.602692 62.882057 195.369247 63.648548 C 195.126602 64.39666 195.21666 65.354309 195.867371 65.876328 C 197.288208 66.982864 199.170425 67.080276 200.782455 67.776924 C 201.931244 68.221748 203.015732 69.080139 203.319031 70.32637 C 203.569016 71.517464 203.366821 72.839058 202.591156 73.804062 C 201.657394 74.908768 200.188751 75.39402 198.780746 75.467545 C 196.913239 75.577835 194.948303 75.258003 193.374908 74.197418 C 193.547684 73.84082 193.714951 73.48056 193.9245 73.142349 C 195.464828 74.088966 197.348877 74.434532 199.126312 74.105507 C 200.256744 73.927216 201.488297 73.331673 201.866928 72.169991 C 202.135284 71.272995 202.006622 70.131531 201.216232 69.532318 C 200.220001 68.633484 198.850586 68.423935 197.628281 67.99382 C 196.220291 67.583923 194.560471 67.032501 193.966766 65.550987 C 193.595474 64.280853 193.941025 62.795666 194.920731 61.883972 Z"/>
            <path id="path72" fill="#8f8275" stroke="none" d="M 207.447403 60.707588 C 210.634659 60.676334 213.825638 60.694717 217.01474 60.698391 C 216.990845 61.097263 216.952225 61.497967 216.92099 61.89867 C 215.608582 62.069622 214.189575 61.860073 212.855103 62.00161 C 212.869797 66.482903 212.84407 70.966034 212.867966 75.447327 C 212.423157 75.502472 211.959961 75.502472 211.520645 75.449165 C 211.540863 70.962357 211.518799 66.477386 211.531662 61.992416 C 210.143921 61.909706 208.74144 61.988743 207.349976 61.953815 C 207.370224 61.536572 207.414322 61.122997 207.447403 60.707588 Z"/>
            <path id="path73" fill="#8f8275" stroke="none" d="M 239.095856 75.449165 C 239.125259 70.530403 239.07196 65.607971 239.121597 60.691044 C 241.119629 60.760891 243.187469 60.474144 245.122986 61.106453 C 246.124756 61.431797 246.904114 62.299381 247.115509 63.334236 C 247.5401 65.260559 247.130188 67.725464 245.220398 68.716194 C 246.19278 70.989929 247.33606 73.217712 248.372772 75.474899 C 247.848907 75.451004 247.299316 75.550262 246.797516 75.42527 C 245.819641 73.340858 244.832581 71.260132 243.825287 69.19043 C 242.737122 69.346664 241.637939 69.30439 240.544296 69.311745 C 240.525879 71.366737 240.551636 73.421738 240.533249 75.474899 C 240.051666 75.467545 239.566391 75.517181 239.095856 75.449165 M 240.538773 61.885811 C 240.538773 63.966534 240.53508 66.047272 240.540604 68.12616 C 241.87323 68.15374 243.319824 68.275055 244.536652 67.615173 C 245.705688 66.975517 245.94278 65.457245 245.781036 64.25145 C 245.744263 63.420624 245.259003 62.624725 244.516418 62.251591 C 243.264648 61.722218 241.858521 61.849045 240.538773 61.885811 Z"/>
            <path id="path74" fill="#8f8275" stroke="none" d="M 253.124237 60.698391 C 255.682892 60.687363 258.241516 60.687363 260.802002 60.698391 C 260.779968 61.117477 260.732147 61.53289 260.702759 61.951977 C 258.653259 61.972202 256.605621 61.946465 254.557983 61.964848 C 254.548767 63.812134 254.554291 65.66127 254.554291 67.50856 C 256.453064 67.526947 258.351837 67.504883 260.25058 67.519592 C 260.21933 67.942352 260.206451 68.370636 260.131073 68.789719 C 258.274628 68.780525 256.418121 68.778694 254.561646 68.789719 C 254.548767 70.596573 254.550598 72.401588 254.561646 74.208443 C 256.774719 74.213959 258.987793 74.217636 261.202728 74.204773 C 261.215576 74.629372 261.1586 75.05397 261.118164 75.474899 C 258.452911 75.484085 255.787659 75.482254 253.122406 75.476738 C 253.115082 70.550621 253.113251 65.624512 253.124237 60.698391 Z"/>
        </g>
    </g>
</svg>
